<svg width="322" height="322" viewBox="0 0 322 322" fill="none" xmlns="http://www.w3.org/2000/svg">
<circle cx="161" cy="161" r="161" fill="#135A9B"/>
<circle cx="161" cy="157" r="145" fill="#6291D9"/>
<ellipse cx="161" cy="157.5" rx="134" ry="129.5" fill="#9BC2FC"/>
<path fill-rule="evenodd" clip-rule="evenodd" d="M222.381 92.0112C224.826 93.9373 231.372 96.6338 237.999 92.0112V102.467C237.275 105.769 234.767 112.4 230.53 112.51C226.292 112.62 223.422 106.227 222.517 103.017L222.381 92.0112ZM228.492 99.7155H224.961C225.142 99.2111 225.611 98.164 226.719 98.164C228.021 98.164 228.402 99.0276 228.492 99.7155ZM235.012 103.843C231.752 106.154 227.41 104.84 225.418 103.877C225.282 104.703 226.741 109.505 230.53 109.071C233.661 108.711 234.921 105.494 235.012 103.843ZM235.283 99.7155H231.752C231.933 99.2111 232.553 98.164 233.661 98.164C234.529 98.164 235.193 99.0276 235.283 99.7155Z" fill="#F9BF6A"/>
<path d="M224.961 98.2556C225.595 97.2926 227.189 95.9443 228.492 98.2556M231.752 98.2556C232.386 97.2926 233.979 95.9443 235.283 98.2556M222.381 92.0112C224.826 93.9373 231.372 96.6338 237.999 92.0112V102.467C237.275 105.769 234.767 112.4 230.53 112.51C226.292 112.62 223.422 106.227 222.517 103.017L222.381 92.0112ZM224.961 99.7155H228.492C228.402 99.0276 228.021 98.164 226.719 98.164C225.611 98.164 225.142 99.2111 224.961 99.7155ZM225.418 103.877C227.41 104.84 231.752 106.154 235.012 103.843C234.921 105.494 233.661 108.711 230.53 109.071C226.741 109.505 225.282 104.703 225.418 103.877ZM231.752 99.7155H235.283C235.193 99.0276 234.529 98.164 233.661 98.164C232.553 98.164 231.933 99.2111 231.752 99.7155Z" stroke="#4D3B3B" stroke-width="0.0615832"/>
<rect x="104.283" y="53.5752" width="18.5471" height="18.5456" rx="1.18034" fill="#F0D796"/>
<ellipse cx="109.424" cy="57.6973" rx="2.06079" ry="2.06062" fill="#AA6262"/>
<ellipse cx="117.676" cy="68.004" rx="2.06079" ry="2.06062" fill="#AA6262"/>
<ellipse cx="113.573" cy="62.8477" rx="2.06079" ry="2.06062" fill="#AA6262"/>
<rect width="84.0613" height="84.0623" rx="19.8287" transform="matrix(0.794297 0.607529 -0.607532 0.794295 156.754 50.5239)" fill="#EF8C67"/>
<path d="M158.272 130.491C165.721 126.185 172.176 125.897 177.582 125.89" stroke="black" stroke-width="2.44044" stroke-linecap="round"/>
<path d="M162.531 82.3049C171.704 83.7055 178.206 81.0434 183.554 78.5499" stroke="black" stroke-width="2.44044" stroke-linecap="round"/>
<path d="M159.626 108.536C166.348 106.742 166.01 114.041 165.176 116.217C164.342 118.392 156.567 126.57 144.383 117.279C157.565 119.619 152.904 110.329 159.626 108.536Z" fill="#6D5F5A"/>
<path d="M169.685 107.563C162.743 107.093 164.476 114.192 165.712 116.166C166.948 118.141 176.149 124.675 186.322 113.217C173.835 118.045 176.626 108.033 169.685 107.563Z" fill="#6D5F5A"/>
<ellipse cx="148.648" cy="99.5753" rx="10.2497" ry="10.2501" fill="black"/>
<ellipse cx="150.759" cy="98.1443" rx="3.88783" ry="3.88799" fill="white"/>
<ellipse cx="177.446" cy="96.16" rx="8.54143" ry="8.54179" fill="black"/>
<ellipse cx="178.63" cy="93.8035" rx="3.23986" ry="3.23999" fill="white"/>
<path d="M191.848 96.161C197.705 96.161 204.295 92.9884 199.902 83.9585" stroke="black" stroke-width="1.46427" stroke-linecap="round" stroke-linejoin="round" stroke-dasharray="3.42 3.42"/>
<rect x="163.275" y="82.983" width="27.8206" height="26.3576" rx="13.1784" fill="white" fill-opacity="0.3" stroke="black" stroke-width="1.95235"/>
<path d="M143.84 181.092L153.357 153.026L155.797 155.467C153.926 165.473 151.307 184.607 155.797 181.092C161.41 176.699 163.851 186.217 161.654 188.414C159.458 190.61 153.357 188.658 146.768 188.414C141.497 188.219 142.62 183.451 143.84 181.092Z" fill="#EF8C67"/>
<path d="M165.811 181.092L175.328 153.026L177.768 155.467C175.897 165.473 173.278 184.607 177.768 181.092C183.381 176.699 185.821 186.217 183.625 188.414C181.429 190.61 175.328 188.658 168.739 188.414C163.468 188.219 164.59 183.451 165.811 181.092Z" fill="#EF8C67"/>
<path d="M110.369 138.627C113.884 139.212 124.036 135.779 128.673 133.99L121.839 129.353C119.887 130.329 115.641 132.33 114.274 132.525C112.907 132.721 105.082 130.492 101.34 129.353C102.235 128.946 103.927 127.449 103.536 124.716C103.048 121.299 98.6555 122.031 97.1913 121.787C95.727 121.543 92.0664 123.984 92.3105 129.353C92.5545 134.722 105.977 137.894 110.369 138.627Z" fill="#EF8C67"/>
<path d="M109.731 95.7192C111.576 98.7669 120.795 104.232 125.173 106.584L124.239 98.3787C122.226 97.5335 117.942 95.6159 116.903 94.7063C115.864 93.7967 112.457 86.4076 110.883 82.8267C111.774 83.2405 114.012 83.549 115.831 81.4719C118.105 78.8756 114.688 76.0202 113.919 74.7503C113.15 73.4805 108.914 72.2934 105 75.9766C101.086 79.6598 107.424 91.9097 109.731 95.7192Z" fill="#EF8C67"/>
<path d="M216.139 131.484C212.744 132.042 202.936 128.774 198.456 127.07L205.058 122.657C206.944 123.586 211.046 125.491 212.367 125.677C213.687 125.863 221.248 123.741 224.863 122.657C223.998 122.27 222.364 120.845 222.741 118.243C223.212 114.991 227.456 115.688 228.871 115.456C230.286 115.223 233.822 117.546 233.586 122.657C233.351 127.767 220.383 130.787 216.139 131.484Z" fill="#EF8C67"/>
<path d="M200.701 74.4592C198.405 77.0215 188.714 80.622 184.155 82.102L186.534 74.5252C188.586 74.0672 192.977 72.9805 194.122 72.2978C195.268 71.6151 199.83 65.2236 201.968 62.1132C201.051 62.3533 198.885 62.2675 197.548 60.0036C195.878 57.1739 199.622 55.0573 200.578 53.9898C201.535 52.9222 205.747 52.5159 208.766 56.6461C211.785 60.7763 203.572 71.2565 200.701 74.4592Z" fill="#EF8C67"/>
<path fill-rule="evenodd" clip-rule="evenodd" d="M190.176 37.2774C190.176 39.8604 187.835 41.9543 184.947 41.9543C182.06 41.9543 179.719 39.8604 179.719 37.2774C179.719 37.1843 179.722 37.0918 179.728 37H174.752V43.7384C174.405 43.6501 174.04 43.6031 173.665 43.6031C171.233 43.6031 169.262 45.5739 169.262 48.0049C169.262 50.4359 171.233 52.4067 173.665 52.4067C174.04 52.4067 174.405 52.3597 174.752 52.2714V56.8081H195.118V37H190.167C190.173 37.0918 190.176 37.1843 190.176 37.2774Z" fill="#FFDA56"/>
<path fill-rule="evenodd" clip-rule="evenodd" d="M102.3 108.949C100.772 109.781 98.7797 109.071 97.849 107.364C96.9183 105.656 97.4021 103.597 98.9296 102.764C98.9825 102.735 99.036 102.708 99.09 102.683L97.483 99.7344L93.4998 101.905C93.44 101.671 93.3502 101.44 93.229 101.217C92.4453 99.7791 90.6445 99.2484 89.2069 100.032C87.7693 100.815 87.2393 102.616 88.023 104.054C88.1442 104.277 88.2897 104.477 88.4543 104.655L85.7695 106.118L92.333 118.161L104.047 111.778L102.455 108.858C102.405 108.889 102.353 108.92 102.3 108.949Z" fill="#9C5FFF"/>
</svg>
