<svg width="322" height="322" viewBox="0 0 322 322" fill="none" xmlns="http://www.w3.org/2000/svg">
<circle cx="161" cy="161" r="161" fill="#135A9B"/>
<circle cx="161" cy="157" r="145" fill="#6291D9"/>
<ellipse cx="161" cy="157.5" rx="134" ry="129.5" fill="#9BC2FC"/>
<rect width="87.5902" height="87.5905" rx="23.9037" transform="matrix(0.794308 0.607515 -0.607546 0.794284 159.439 52.2476)" fill="#EF8C67"/>
<path d="M162.446 112.695C169.45 110.826 169.098 118.432 168.229 120.698C167.36 122.965 159.259 131.487 146.563 121.806C160.299 124.244 155.442 114.564 162.446 112.695Z" fill="#6D5F5A"/>
<path d="M172.918 111.686C165.686 111.197 167.491 118.594 168.779 120.651C170.067 122.708 179.654 129.517 190.255 117.578C177.243 122.608 180.151 112.176 172.918 111.686Z" fill="#6D5F5A"/>
<ellipse cx="151.012" cy="103.358" rx="10.6801" ry="10.6803" fill="black"/>
<ellipse cx="153.239" cy="101.866" rx="4.05107" ry="4.05113" fill="white"/>
<ellipse cx="180.988" cy="99.7962" rx="8.90008" ry="8.90022" fill="black"/>
<ellipse cx="182.204" cy="97.3398" rx="3.3759" ry="3.37594" fill="white"/>
<path d="M195.994 99.7981C202.097 99.7981 208.964 96.4923 204.387 87.0835" stroke="black" stroke-width="1.52577" stroke-linecap="round" stroke-linejoin="round" stroke-dasharray="3.56 3.56"/>
<rect x="166.228" y="86.0689" width="28.9888" height="27.4635" rx="13.7318" fill="white" fill-opacity="0.3" stroke="black" stroke-width="2.03436"/>
<path d="M150.215 188.294L160.132 159.051L162.674 161.594C160.725 172.02 157.995 191.956 162.674 188.294C168.523 183.717 171.066 193.634 168.777 195.923C166.489 198.212 160.132 196.177 153.266 195.923C147.774 195.72 148.943 190.753 150.215 188.294Z" fill="#EF8C67"/>
<path d="M173.096 188.295L183.013 159.052L185.555 161.595C183.606 172.021 180.876 191.957 185.555 188.295C191.404 183.718 193.947 193.635 191.658 195.924C189.369 198.213 183.013 196.178 176.147 195.924C170.654 195.721 171.824 190.753 173.096 188.295Z" fill="#EF8C67"/>
<path d="M116.716 144.05C120.378 144.66 130.956 141.083 135.788 139.218L128.668 134.387C126.633 135.404 122.209 137.489 120.785 137.692C119.361 137.896 111.206 135.573 107.307 134.387C108.24 133.963 110.003 132.403 109.596 129.555C109.087 125.995 104.51 126.758 102.985 126.504C101.459 126.249 97.6446 128.792 97.8988 134.387C98.1531 139.981 112.139 143.287 116.716 144.05Z" fill="#EF8C67"/>
<path d="M212.797 135.191C209.259 135.771 199.039 132.367 194.371 130.592L201.25 125.993C203.215 126.961 207.49 128.946 208.866 129.139C210.242 129.333 218.12 127.122 221.887 125.993C220.986 125.59 219.283 124.105 219.676 121.394C220.167 118.005 224.589 118.732 226.063 118.49C227.537 118.248 231.222 120.668 230.977 125.993C230.731 131.318 217.219 134.464 212.797 135.191Z" fill="#EF8C67"/>
<path d="M209.652 61.5632C211.062 63.2609 212.753 66.9417 208.242 68.0826M208.242 68.0826C203.731 69.2235 203.543 65.4341 204.013 63.3968L204.617 62.1744C203.475 60.8841 202.24 58.1405 206.429 57.4886C206.228 55.7908 206.873 52.762 211.062 54.2289C211.8 52.8707 213.761 50.8878 215.694 53.8215M208.242 68.0826C211.303 71.3422 213.009 68.8975 213.479 67.2677C215.895 72.1573 218.379 69.8483 219.319 68.0826M215.694 53.8215C213.546 56.4699 211.062 61.8483 218.312 62.1744M215.694 53.8215C218.312 52.5311 223.549 51.4581 223.549 57.4886C225.495 57.6244 228.584 58.9961 225.361 63.3968M222.542 62.1744C224.287 62.1065 227.254 62.9079 225.16 66.6565C223.065 70.4052 220.393 69.1692 219.319 68.0826M219.319 68.0826C218.849 67.7431 217.99 66.7788 218.312 65.6379M219.923 53.2103C221.132 55.0439 222.3 58.5073 217.305 57.6924M207.84 45.876L211.062 50.9693M223.549 46.4872L220.729 50.9693M228.382 60.7483L235.23 59.3222M225.16 69.9162L229.993 75.0095M216.902 72.361L216.097 79.4916M207.84 70.9349L200.388 75.6207M201.596 60.7483H194.145M197.568 49.1357L204.013 54.6364" stroke="#EE4B4B" stroke-width="1.86755"/>
<path d="M100.861 77.7844C99.2286 76.0584 95.9634 71.8753 95.9634 68.9512M100.861 77.7844V82.0487M100.861 77.7844H105.854M97.1879 59.5088C101.473 53.7215 114.333 55.9576 114.942 63.4685C115.248 67.2366 113.902 71.7535 110.963 75.6523L110.847 77.7844M105.759 53.4169V38.7964M114.942 57.6812L122.901 48.848M118.616 65.9053L131.166 66.819M114.942 75.6523L125.044 82.3533M95.9634 75.6523L88.9229 82.3533M92.9023 65.9053H81.5762M97.1879 57.6812L88.9229 48.848M110.847 77.7844L110.615 82.0487M110.847 77.7844H105.854M100.861 82.0487H110.615M100.861 82.0487V85.3993M110.615 82.0487L110.433 85.3993M100.861 85.3993V86.3131C103.8 91.9176 108.208 89.2575 110.351 86.9223L110.433 85.3993M100.861 85.3993H110.433M105.854 77.7844C107.251 75.2461 109.861 70.1696 109.126 70.1696C108.208 70.1696 105.453 65.6007 103.922 70.1696C102.698 73.8247 104.7 76.7691 105.854 77.7844Z" stroke="#FFEF5E" stroke-width="2.19708"/>
<ellipse cx="171.135" cy="134.727" rx="6.01779" ry="7.43375" fill="#282727"/>
</svg>
