<svg width="207" height="200" viewBox="0 0 207 200" fill="none" xmlns="http://www.w3.org/2000/svg">
<circle cx="107" cy="100" r="100" fill="#135A9B"/>
<circle cx="106.984" cy="109.415" r="85.2942" fill="#6291D9"/>
<ellipse cx="107.017" cy="114.994" rx="78.8235" ry="76.1765" fill="#9BC2FC"/>
<ellipse cx="151.44" cy="102.637" rx="52.5596" ry="86.6373" fill="#777777"/>
<ellipse cx="151.46" cy="102.632" rx="46.7199" ry="76.9032" fill="#F3F3F3"/>
<line y1="-0.522322" x2="29.5461" y2="-0.522322" transform="matrix(-0.707081 0.707133 -0.707081 -0.707133 158.072 60.5303)" stroke="#D2D2D2" stroke-width="1.04464"/>
<line y1="-0.522322" x2="67.534" y2="-0.522322" transform="matrix(-0.707086 0.707127 -0.707086 -0.707127 180.461 72.4678)" stroke="#D2D2D2" stroke-width="1.04464"/>
<line y1="-0.522322" x2="40.0983" y2="-0.522322" transform="matrix(-0.707087 0.707127 -0.707087 -0.707127 170.008 114.262)" stroke="#D2D2D2" stroke-width="1.04464"/>
<g opacity="0.4">
<mask id="mask0_1637_34403" style="mask-type:alpha" maskUnits="userSpaceOnUse" x="104" y="25" width="95" height="155">
<ellipse cx="151.46" cy="102.631" rx="46.7199" ry="76.9032" fill="#F3F3F3"/>
</mask>
<g mask="url(#mask0_1637_34403)">
<g opacity="0.4">
<rect width="102.092" height="102.094" rx="27.8641" transform="matrix(-0.794345 0.607467 0.607595 0.794248 160.797 29.8916)" fill="#EF8C67"/>
<path d="M157.278 100.345C149.107 98.1645 149.517 107.037 150.531 109.681C151.545 112.325 160.996 122.266 175.806 110.973C159.782 113.817 165.449 102.525 157.278 100.345Z" fill="#6D5F5A"/>
<path d="M144.553 99.1176C152.991 98.5465 150.885 107.175 149.382 109.575C147.879 111.975 136.696 119.918 124.329 105.991C139.509 111.859 136.116 99.6888 144.553 99.1176Z" fill="#6D5F5A"/>
<ellipse cx="12.448" cy="12.4489" rx="12.448" ry="12.4489" transform="matrix(-1 0 0 1 183.072 77.0176)" fill="black"/>
<ellipse cx="4.72165" cy="4.72199" rx="4.72165" ry="4.72199" transform="matrix(-1 0 0 1 172.758 83.0088)" fill="white"/>
<ellipse cx="10.3733" cy="10.3741" rx="10.3733" ry="10.3741" transform="matrix(-1 0 0 1 146.037 74.9463)" fill="black"/>
<ellipse cx="3.93471" cy="3.93499" rx="3.93471" ry="3.93499" transform="matrix(-1 0 0 1 138.182 78.5176)" fill="white"/>
<path d="M118.182 85.3162C111.068 85.3162 103.065 81.463 108.4 70.4961" stroke="black" stroke-width="1.77856" stroke-linecap="round" stroke-linejoin="round" stroke-dasharray="4.15 4.15"/>
<rect x="-1.18571" y="1.18571" width="33.7871" height="32.0112" rx="16.0056" transform="matrix(-1 0 0 1 151.701 68.127)" fill="white" fill-opacity="0.3" stroke="black" stroke-width="2.37141"/>
<path d="M103.509 120.722C94.6054 125.174 93.8931 149.216 126.658 145.654L103.509 120.722Z" fill="#EF8C67"/>
<path d="M171.555 188.467L159.996 154.381L157.033 157.345C159.305 169.497 162.486 192.735 157.033 188.467C150.216 183.132 147.252 194.692 149.92 197.359C152.587 200.027 159.996 197.656 167.998 197.359C174.4 197.122 173.037 191.332 171.555 188.467Z" fill="#EF8C67"/>
<path d="M144.871 188.468L133.312 154.382L130.349 157.346C132.621 169.498 135.802 192.736 130.349 188.468C123.532 183.133 120.569 194.693 123.236 197.36C125.903 200.028 133.312 197.657 141.315 197.36C147.716 197.123 146.353 191.333 144.871 188.468Z" fill="#EF8C67"/>
<path d="M140.126 117.672C140.126 122.839 145.193 124.649 148.95 124.649C152.707 124.649 157.934 123.73 157.934 118.563C157.934 113.397 152.707 122.125 148.95 122.125C145.193 122.125 140.126 112.506 140.126 117.672Z" fill="#141414"/>
<path d="M114.357 121.613C114.654 118.052 114.535 110.75 111.686 110.038C108.124 109.147 107.235 109.147 106.344 111.818C104.991 115.873 106.937 119.536 107.234 120.723C107.531 121.613 107.946 123.572 107.234 124.285C106.344 125.175 104.028 124.462 101.892 126.066C98.3317 128.737 96.6287 134.188 101.892 141.203C104.564 144.765 109.906 144.587 117.028 143.875C119.996 143.578 125.753 142.094 125.041 138.532C124.342 135.035 120.154 135.257 118.036 135.828C119.195 135.475 120.506 134.164 121.481 133.189C123.262 131.408 122.183 129.533 120.591 128.737C119.576 128.229 117.982 128.011 116.799 128.082C119.263 126.385 122.966 122.276 114.357 121.613Z" fill="#EF8C67"/>
<path d="M114.357 121.613C114.654 118.052 114.535 110.75 111.686 110.038C108.124 109.147 107.235 109.147 106.344 111.818C104.991 115.873 106.937 119.536 107.234 120.723C107.531 121.613 107.946 123.572 107.234 124.285C106.344 125.175 104.028 124.462 101.892 126.066C98.3317 128.737 96.6287 134.188 101.892 141.203C104.564 144.765 109.906 144.587 117.028 143.875C119.996 143.578 125.753 142.094 125.041 138.532C124.329 134.97 119.997 135.267 117.92 135.861C119.107 135.564 120.474 134.197 121.481 133.189C123.262 131.408 122.183 129.533 120.591 128.737C118.81 127.846 115.249 127.846 115.249 128.737C115.249 129.627 125.933 122.504 114.357 121.613Z" stroke="black" stroke-width="1.78086"/>
<path d="M189.852 147.04C197.409 150.614 225.526 137.639 223.746 128.746C223.748 104.702 201.03 136.898 193.473 133.324C185.916 129.751 181.486 129.323 179.594 133.324C177.702 137.325 182.295 143.466 189.852 147.04Z" fill="#EF8C67"/>
</g>
</g>
</g>
<rect width="102.092" height="102.094" rx="27.8641" transform="matrix(0.794345 0.607467 -0.607595 0.794248 66.6113 29.8916)" fill="#EF8C67"/>
<path d="M70.1304 100.345C78.3012 98.1645 77.8909 107.037 76.8771 109.681C75.8633 112.325 66.4126 122.266 51.6023 110.973C67.6259 113.817 61.9597 102.525 70.1304 100.345Z" fill="#6D5F5A"/>
<path d="M82.8548 99.1176C74.4175 98.5465 76.5237 107.175 78.0263 109.575C79.5288 111.975 90.7125 119.918 103.079 105.991C87.8995 111.859 91.2922 99.6888 82.8548 99.1176Z" fill="#6D5F5A"/>
<ellipse cx="56.7839" cy="89.4674" rx="12.448" ry="12.4489" fill="black"/>
<ellipse cx="59.372" cy="87.7318" rx="4.72165" ry="4.72199" fill="white"/>
<ellipse cx="91.7425" cy="85.3204" rx="10.3733" ry="10.3741" fill="black"/>
<ellipse cx="93.1593" cy="82.4526" rx="3.93471" ry="3.93499" fill="white"/>
<path d="M109.227 85.3162C116.34 85.3162 124.343 81.463 119.008 70.4961" stroke="black" stroke-width="1.77856" stroke-linecap="round" stroke-linejoin="round" stroke-dasharray="4.15 4.15"/>
<rect x="74.5216" y="69.3127" width="33.7871" height="32.0112" rx="16.0056" fill="white" fill-opacity="0.3" stroke="black" stroke-width="2.37141"/>
<path d="M123.899 120.722C132.803 125.174 133.515 149.216 100.75 145.654L123.899 120.722Z" fill="#EF8C67"/>
<path d="M55.8534 188.467L67.4123 154.381L70.3755 157.345C68.1033 169.497 64.9221 192.735 70.3755 188.467C77.1923 183.132 80.1561 194.692 77.4887 197.359C74.8212 200.027 67.4123 197.656 59.41 197.359C53.0082 197.122 54.3715 191.332 55.8534 188.467Z" fill="#EF8C67"/>
<path d="M82.537 188.468L94.0959 154.382L97.0591 157.346C94.7869 169.498 91.6057 192.736 97.0591 188.468C103.876 183.133 106.84 194.693 104.172 197.36C101.505 200.028 94.0959 197.657 86.0936 197.36C79.6918 197.123 81.0551 191.333 82.537 188.468Z" fill="#EF8C67"/>
<path d="M87.2798 117.672C87.2798 122.839 82.2131 124.649 78.456 124.649C74.699 124.649 69.4727 123.73 69.4727 118.563C69.4727 113.397 74.699 122.125 78.456 122.125C82.2131 122.125 87.2798 112.506 87.2798 117.672Z" fill="#141414"/>
<path d="M113.049 121.613C112.753 118.052 112.871 110.75 115.72 110.038C119.282 109.147 120.171 109.147 121.063 111.818C122.416 115.873 120.469 119.536 120.172 120.723C119.875 121.613 119.46 123.572 120.172 124.285C121.063 125.175 123.378 124.462 125.514 126.066C129.075 128.737 130.778 134.188 125.514 141.203C122.842 144.765 117.5 144.587 110.378 143.875C107.411 143.578 101.653 142.094 102.365 138.532C103.064 135.035 107.252 135.257 109.37 135.828C108.211 135.475 106.9 134.164 105.925 133.189C104.145 131.408 105.223 129.533 106.816 128.737C107.831 128.229 109.424 128.011 110.607 128.082C108.143 126.385 104.44 122.276 113.049 121.613Z" fill="#EF8C67"/>
<path d="M113.049 121.613C112.753 118.052 112.871 110.75 115.72 110.038C119.282 109.147 120.171 109.147 121.063 111.818C122.416 115.873 120.469 119.536 120.172 120.723C119.875 121.613 119.46 123.572 120.172 124.285C121.063 125.175 123.378 124.462 125.514 126.066C129.075 128.737 130.778 134.188 125.514 141.203C122.842 144.765 117.5 144.587 110.378 143.875C107.41 143.578 101.653 142.094 102.365 138.532C103.077 134.97 107.41 135.267 109.487 135.861C108.3 135.564 106.933 134.197 105.925 133.189C104.145 131.408 105.223 129.533 106.816 128.737C108.596 127.846 112.158 127.846 112.158 128.737C112.158 129.627 101.473 122.504 113.049 121.613Z" stroke="black" stroke-width="1.78086"/>
<path d="M37.5523 147.04C29.9952 150.614 1.8783 137.639 3.65781 128.746C3.65588 104.702 26.374 136.898 33.9311 133.324C41.4882 129.751 45.9184 129.323 47.8102 133.324C49.702 137.325 45.1094 143.466 37.5523 147.04Z" fill="#EF8C67"/>
</svg>
