<svg width="322" height="322" viewBox="0 0 322 322" fill="none" xmlns="http://www.w3.org/2000/svg">
<circle cx="161" cy="161" r="161" fill="#135A9B"/>
<circle cx="161" cy="157" r="145" fill="#6291D9"/>
<ellipse cx="161" cy="157.5" rx="134" ry="129.5" fill="#9BC2FC"/>
<rect width="93.1878" height="93.1875" rx="27.5251" transform="matrix(0.7943 0.607526 -0.607536 0.794292 152.615 43)" fill="#EF8C67"/>
<path d="M153.295 121.866C159.831 127.38 166.573 127.285 170 119.984" stroke="black" stroke-width="2.9282" stroke-linecap="round"/>
<path d="M155.846 107.306C163.297 105.318 162.923 113.409 161.999 115.821C161.074 118.232 152.455 127.298 138.948 116.999C153.562 119.593 148.394 109.294 155.846 107.306Z" fill="#6D5F5A"/>
<path d="M167.012 106.227C159.317 105.707 161.238 113.576 162.608 115.765C163.979 117.954 174.178 125.197 185.456 112.496C171.613 117.847 174.707 106.748 167.012 106.227Z" fill="#6D5F5A"/>
<ellipse cx="143.656" cy="97.3782" rx="11.3628" ry="11.3626" fill="black"/>
<ellipse cx="145.999" cy="95.7934" rx="4.31001" ry="4.30995" fill="white"/>
<ellipse cx="175.582" cy="93.5894" rx="9.46896" ry="9.46883" fill="black"/>
<ellipse cx="176.9" cy="90.9774" rx="3.59167" ry="3.59163" fill="white"/>
<path d="M191.502 93.5884C197.995 93.5884 205.301 90.0714 200.431 80.0615" stroke="black" stroke-width="1.75692" stroke-linecap="round" stroke-linejoin="round" stroke-dasharray="4.1 4.1"/>
<rect x="159.937" y="79.0712" width="30.6635" height="29.0399" rx="14.5199" fill="white" fill-opacity="0.3" stroke="black" stroke-width="2.34256"/>
<path d="M138.253 187.737L148.804 156.625L151.509 159.331C149.435 170.423 146.531 191.633 151.509 187.737C157.732 182.868 160.437 193.419 158.002 195.854C155.567 198.288 148.804 196.124 141.5 195.854C135.656 195.637 136.901 190.353 138.253 187.737Z" fill="#EF8C67"/>
<path d="M162.607 187.739L173.158 156.627L175.863 159.332C173.789 170.424 170.885 191.635 175.863 187.739C182.085 182.869 184.791 193.42 182.356 195.855C179.921 198.29 173.158 196.126 165.853 195.855C160.01 195.639 161.254 190.354 162.607 187.739Z" fill="#EF8C67"/>
<path d="M219.786 144.234C221.361 140.066 208.463 130.919 201.818 126.867L199.357 128.108C204.936 133.235 214.42 140.711 211.664 139.52C208.218 138.032 207.725 144.73 210.679 146.963C212.058 148.005 217.817 149.444 219.786 144.234Z" fill="#EF8C67"/>
<path d="M131.071 127.046L154.696 132.047C156.248 133.943 159.525 133.771 160.905 133.081L186.6 128.425L186.945 159.809L161.594 164.119C160.272 164.924 156.973 166.051 154.352 164.119L133.295 161.793C132.585 161.77 131.988 161.709 131.544 161.6C130.858 161.431 130.537 161.149 130.724 160.717L130.726 148.773L131.071 127.046Z" fill="#6596A4"/>
<path d="M141.205 123.08L131.375 127.219C154.414 139.496 177.304 133.484 185.869 128.943L177.074 123.942C175.833 122.011 164.485 128.655 158.967 132.219C158.553 130.702 146.953 125.494 141.205 123.08Z" fill="#F9F9F9"/>
<path d="M140.649 144.452C140.551 145.415 131.09 141.566 125.77 139.582L128.204 142.828C131.992 147.969 143.896 151.756 147.142 150.674C150.389 149.592 152.463 145.985 151.471 144.452C151.742 143.64 147.683 139.582 145.79 140.394C143.896 141.205 141.064 140.394 140.649 144.452Z" fill="#EF8C67"/>
<rect width="2.26124" height="41.2967" rx="1.13062" transform="matrix(0.954284 0.298902 -0.298909 0.954282 221.438 106.116)" fill="#6B4040"/>
<path d="M220.69 79.1536L221.06 78.7778C221.344 78.5814 221.616 78.383 221.878 78.1824C222.152 77.9725 222.429 77.7511 222.708 77.5183C222.559 77.6212 222.395 77.7449 222.215 77.8893C222.039 78.0109 221.863 78.1325 221.687 78.254L220.998 78.731C220.881 78.8516 220.796 78.9306 220.742 78.968C220.579 79.0802 220.434 79.1009 220.305 79.0302L220.258 78.7026C220.556 78.4968 220.761 78.3451 220.873 78.2474C220.985 78.1497 221.091 78.0567 221.19 77.9684L221.419 78.1697C221.602 77.9431 221.804 77.7435 222.024 77.571C222.259 77.3892 222.491 77.2187 222.72 77.0598C222.95 76.9008 223.176 76.735 223.396 76.5625C223.63 76.3806 223.834 76.1696 224.008 75.9295L223.924 75.8078C223.088 76.5655 222.218 77.2576 221.311 77.8842C222.022 77.2929 222.719 76.6813 223.401 76.0493C224.097 75.4081 224.844 74.8116 225.642 74.2598C225.97 74.2724 226.29 74.1712 226.601 73.9561L226.651 74.0715C226.689 74.1256 226.726 74.1797 226.764 74.2338C226.805 74.265 226.849 74.3144 226.896 74.382C226.962 74.4767 226.993 74.5651 226.99 74.6472C227 74.72 226.937 74.8032 226.802 74.8967L226.929 75.0792C227.12 75.0668 227.308 75.107 227.492 75.1996C227.68 75.2693 227.83 75.3854 227.942 75.5476C228.045 75.6964 228.055 75.8695 227.972 76.067C227.893 76.2417 227.764 76.4309 227.585 76.6346C227.406 76.8383 227.186 77.0405 226.925 77.241C226.677 77.4323 226.425 77.6167 226.168 77.7944C225.924 77.9628 225.701 78.1171 225.498 78.2574C225.286 78.3841 225.119 78.4896 224.997 78.5738C224.659 78.8076 224.312 79.0575 223.957 79.3235C223.614 79.5802 223.267 79.8301 222.916 80.0733C222.686 80.2323 222.57 80.4121 222.569 80.6128C222.568 80.8135 222.617 81.0293 222.717 81.2602C222.83 81.4817 222.96 81.7121 223.105 81.9513C223.264 82.1812 223.391 82.3934 223.486 82.5879C223.732 82.5973 224.052 82.4961 224.445 82.2841C224.829 82.0587 225.256 81.8234 225.726 81.5782C226.21 81.3236 226.724 81.0982 227.268 80.9019C227.825 80.6963 228.392 80.6045 228.967 80.6266C229.546 80.6259 230.126 80.7847 230.706 81.1032C231.3 81.4123 231.868 81.959 232.41 82.7432C232.934 83.5005 233.24 84.3184 233.328 85.1971C233.43 86.0665 233.362 86.9228 233.126 87.766C232.88 88.5956 232.49 89.3753 231.955 90.1051C231.43 90.8483 230.815 91.4631 230.112 91.9494C229.869 92.1177 229.514 92.3131 229.048 92.5354C228.591 92.7712 228.102 92.9597 227.58 93.1009C227.08 93.2462 226.602 93.3068 226.146 93.2827C225.699 93.2721 225.363 93.1046 225.138 92.78C225.064 92.6718 225.068 92.5486 225.153 92.4104C225.806 92.7185 226.496 92.8207 227.224 92.717C227.943 92.5999 228.602 92.3537 229.202 91.9786C228.606 92.3308 227.969 92.5515 227.291 92.6406C226.59 92.7256 225.929 92.5932 225.307 92.2435L225.494 91.9941C225.361 91.9462 225.235 91.8936 225.115 91.8364C224.986 91.7656 224.871 91.6855 224.769 91.596C224.708 91.4785 224.657 91.3334 224.618 91.1608C224.569 90.9746 224.619 90.8301 224.768 90.7272C225.038 90.5402 225.289 90.4971 225.518 90.5981C225.752 90.6762 226.014 90.7652 226.303 90.8652C226.596 90.9423 226.939 90.9752 227.331 90.9639C227.714 90.9391 228.202 90.721 228.798 90.3095C229.176 90.0476 229.537 89.688 229.881 89.2306C230.237 88.7639 230.523 88.2665 230.738 87.7384C230.956 87.1873 231.079 86.6425 231.106 86.1039C231.124 85.5518 230.997 85.05 230.725 84.5986C230.947 85.0645 231.052 85.5621 231.038 86.0914C231.015 86.6071 230.903 87.1244 230.702 87.6432C230.505 88.1391 230.237 88.6043 229.898 89.0388C229.572 89.4639 229.213 89.8121 228.821 90.0833C228.632 90.2143 228.417 90.3525 228.178 90.4979C227.943 90.6205 227.694 90.7228 227.431 90.8049C227.172 90.864 226.919 90.8889 226.673 90.8794C226.417 90.8564 226.18 90.7601 225.963 90.5905C226.18 90.5001 226.387 90.4373 226.582 90.4021C226.778 90.3668 226.973 90.3315 227.169 90.2963C227.355 90.2475 227.548 90.194 227.748 90.1359C227.938 90.0642 228.148 89.9489 228.378 89.7899L228.682 89.5795C228.777 89.514 228.869 89.4303 228.959 89.3285L229.085 89.511C229.394 89.1774 229.675 88.8032 229.928 88.3884C230.185 87.9507 230.385 87.5027 230.527 87.0442C230.661 86.5721 230.71 86.1084 230.674 85.6529C230.643 85.1746 230.483 84.7258 230.193 84.3067C229.978 83.9956 229.698 83.7496 229.352 83.5685C229.007 83.3874 228.648 83.316 228.275 83.3543L228.298 83.5181C228.589 83.4767 228.887 83.5309 229.19 83.6807C229.507 83.8213 229.75 84.0132 229.918 84.2566C230.396 84.9462 230.592 85.6498 230.509 86.3672C230.446 86.9703 230.244 87.5598 229.903 88.1357C230.009 87.9423 230.104 87.7469 230.187 87.5494C230.318 87.2188 230.397 86.8845 230.423 86.5466C230.463 86.1993 230.448 85.8598 230.378 85.528C230.322 85.1869 230.196 84.8744 229.999 84.5904C229.663 84.1036 229.241 83.8258 228.733 83.757C228.226 83.6881 227.693 83.7268 227.134 83.8732C226.589 84.0102 226.054 84.22 225.53 84.5026C224.996 84.7717 224.533 85.0122 224.14 85.2241C223.864 85.3748 223.609 85.5114 223.374 85.634C223.143 85.7337 222.92 85.7877 222.706 85.7959C222.492 85.8041 222.283 85.7484 222.081 85.6287C221.878 85.5091 221.669 85.2937 221.454 84.9827C221.304 84.7663 221.128 84.4684 220.925 84.0887C220.727 83.6862 220.535 83.279 220.35 82.8672C220.169 82.4324 219.998 82.0112 219.836 81.6035C219.674 81.1959 219.558 80.8558 219.49 80.5833C219.577 80.6229 219.655 80.6193 219.722 80.5725C219.79 80.5257 219.862 80.4857 219.939 80.4525C220.007 80.4057 220.07 80.3818 220.13 80.3808C220.202 80.3705 220.281 80.4261 220.365 80.5478C220.459 80.6831 220.532 80.8323 220.585 80.9956C220.628 81.1453 220.672 81.2951 220.716 81.4449L220.94 81.3794C220.924 81.211 220.905 81.054 220.884 80.9084C220.868 80.7399 220.863 80.5735 220.869 80.4092C220.749 80.352 220.657 80.276 220.591 80.1814C220.488 80.0327 220.44 79.8761 220.446 79.7118C220.457 79.5247 220.417 79.352 220.328 79.194L220.69 79.1536ZM232.918 85.6009C232.867 86.6553 232.602 87.6586 232.121 88.6109C231.649 89.5767 231.016 90.4244 230.221 91.154C231.039 90.4285 231.693 89.5965 232.183 88.6577C232.683 87.7325 232.928 86.7136 232.918 85.6009ZM224.75 78.0854C224.591 78.1748 224.418 78.2849 224.228 78.4159L223.417 78.977C223.526 78.9615 223.73 78.8508 224.027 78.6451C224.243 78.4954 224.455 78.339 224.662 78.1759C224.784 78.0917 224.881 78.0148 224.952 77.9452C224.912 77.9732 224.844 78.02 224.75 78.0854ZM222.158 80.1478L222.189 79.9762L221.296 80.5935L222.158 80.1478ZM229.823 88.2807C229.845 88.2256 229.872 88.1773 229.903 88.1357C229.872 88.1773 229.845 88.2256 229.823 88.2807ZM229.756 88.3571C229.77 88.3478 229.779 88.3317 229.783 88.3088C229.779 88.3317 229.77 88.3478 229.756 88.3571Z" fill="#E338D2"/>
<path d="M197.589 53.5734C196.067 54.1093 195.862 55.8377 195.954 56.7202C195.96 56.7794 195.992 56.8324 196.04 56.8681C196.192 56.9821 196.426 56.8613 196.474 56.6769C196.619 56.1149 197.075 55.6555 197.574 55.3162C198.129 54.9383 198.805 55.3735 198.862 56.0429L199.03 58.0004C199.074 58.5081 198.964 59.0161 198.76 59.4834C198.502 60.0786 198.18 60.9343 197.937 61.9021C197.473 63.7529 199.793 63.1746 200.837 63.0589C201.575 62.9771 200.738 58.6774 200.053 55.7883C199.913 55.2009 200.264 54.6066 200.848 54.4533C201.468 54.2907 202.094 54.6894 202.229 55.3156C202.774 57.8422 203.823 61.537 205.013 62.2491C206.246 62.9871 207.145 60.6922 207.55 59.033C207.63 58.7048 207.406 58.3862 207.073 58.3308C206.68 58.2654 206.296 58.6181 206.078 58.9519C205.892 59.2355 205.564 59.5209 205.013 59.7043C204.053 60.0232 203.542 56.8729 203.344 54.589C203.295 54.0181 203.716 53.5214 204.285 53.4547L204.489 53.4307C204.92 53.3802 205.245 53.0149 205.245 52.5809C205.245 52.0262 204.726 51.6182 204.187 51.753C202.086 52.2794 198.916 53.1064 197.589 53.5734Z" fill="#7C3C3C"/>
<rect width="15.6972" height="3.85966" rx="1.92983" transform="matrix(0.954748 -0.297415 0.297513 0.954718 217.641 61.4863)" fill="#4D69FF"/>
<ellipse cx="1.92998" cy="1.92983" rx="1.92998" ry="1.92983" transform="matrix(0.954748 -0.297415 0.297513 0.954718 221.832 55.0532)" fill="#4D69FF"/>
<ellipse cx="1.92998" cy="1.92983" rx="1.92998" ry="1.92983" transform="matrix(0.954748 -0.297415 0.297513 0.954718 224.744 64.3911)" fill="#4D69FF"/>
</svg>
