<svg width="126" height="206" viewBox="0 0 126 206" fill="none" xmlns="http://www.w3.org/2000/svg">
<path fill-rule="evenodd" clip-rule="evenodd" d="M0 203.422C7.39534 205.109 15.0936 206 23 206C79.8853 206 126 159.885 126 103C126 46.1147 79.8853 0 23 0C15.0936 0 7.39534 0.890824 0 2.57758V203.422Z" fill="#2A5996"/>
<path fill-rule="evenodd" clip-rule="evenodd" d="M0 185.89C7.32088 187.917 15.034 189 23 189C70.4965 189 109 150.496 109 103C109 55.5035 70.4965 17 23 17C15.034 17 7.32088 18.0831 0 20.11V185.89Z" fill="#6C90D3"/>
<path fill-rule="evenodd" clip-rule="evenodd" d="M0 168.074C7.19392 170.616 14.9354 172 23 172C61.1077 172 92 141.108 92 103C92 64.8924 61.1077 34 23 34C14.9354 34 7.19392 35.3835 0 37.9262V168.074Z" fill="#A3C1F7"/>
<ellipse cx="72.5531" cy="100.647" rx="23.4457" ry="38.6471" fill="#777777"/>
<ellipse cx="72.5615" cy="100.645" rx="20.8407" ry="34.3049" fill="#F3F3F3"/>
<line y1="-0.232997" x2="13.1799" y2="-0.232997" transform="matrix(-0.707081 0.707133 -0.707081 -0.707133 75.5137 81.8643)" stroke="#D2D2D2" stroke-width="0.465994"/>
<line y1="-0.232997" x2="30.1255" y2="-0.232997" transform="matrix(-0.707086 0.707127 -0.707086 -0.707127 85.5 87.1895)" stroke="#D2D2D2" stroke-width="0.465994"/>
<line y1="-0.232997" x2="17.887" y2="-0.232997" transform="matrix(-0.707087 0.707127 -0.707087 -0.707127 80.8379 105.833)" stroke="#D2D2D2" stroke-width="0.465994"/>
<g opacity="0.4">
<mask id="mask0_1571_115543" style="mask-type:alpha" maskUnits="userSpaceOnUse" x="51" y="66" width="43" height="69">
<ellipse cx="72.5634" cy="100.644" rx="20.8407" ry="34.3049" fill="#F3F3F3"/>
</mask>
<g mask="url(#mask0_1571_115543)">
<g opacity="0.4">
<rect width="45.5412" height="45.5419" rx="12.4296" transform="matrix(-0.794345 0.607467 0.607595 0.794248 76.7246 68.1963)" fill="#EF8C67"/>
<path d="M75.1571 99.6231C71.5123 98.6506 71.6953 102.608 72.1475 103.788C72.5998 104.967 76.8155 109.402 83.4221 104.364C76.2743 105.633 78.8019 100.596 75.1571 99.6231Z" fill="#6D5F5A"/>
<path d="M69.4807 99.0762C73.2444 98.8214 72.3049 102.671 71.6346 103.741C70.9644 104.812 65.9756 108.355 60.4592 102.142C67.2304 104.76 65.717 99.331 69.4807 99.0762Z" fill="#6D5F5A"/>
<ellipse cx="5.55279" cy="5.55318" rx="5.55279" ry="5.55318" transform="matrix(-1 0 0 1 86.6621 89.2188)" fill="black"/>
<ellipse cx="2.10623" cy="2.10638" rx="2.10623" ry="2.10638" transform="matrix(-1 0 0 1 82.0605 91.8916)" fill="white"/>
<ellipse cx="4.62732" cy="4.62765" rx="4.62732" ry="4.62765" transform="matrix(-1 0 0 1 70.1406 88.2949)" fill="black"/>
<ellipse cx="1.75519" cy="1.75532" rx="1.75519" ry="1.75532" transform="matrix(-1 0 0 1 66.6367 89.8877)" fill="white"/>
<path d="M57.7168 92.9205C54.5438 92.9205 50.9736 91.2017 53.3534 86.3096" stroke="black" stroke-width="0.793378" stroke-linecap="round" stroke-linejoin="round" stroke-dasharray="1.85 1.85"/>
<rect x="-0.528918" y="0.528918" width="15.0717" height="14.2795" rx="7.13976" transform="matrix(-1 0 0 1 72.6687 85.252)" fill="white" fill-opacity="0.3" stroke="black" stroke-width="1.05784"/>
<path d="M51.1697 108.714C47.198 110.7 46.8803 121.425 61.4961 119.836L51.1697 108.714Z" fill="#EF8C67"/>
<path d="M81.5238 138.934L76.3677 123.729L75.0458 125.051C76.0594 130.472 77.4785 140.838 75.0458 138.934C72.005 136.554 70.6829 141.71 71.8728 142.9C73.0627 144.09 76.3677 143.032 79.9373 142.9C82.7931 142.794 82.1849 140.212 81.5238 138.934Z" fill="#EF8C67"/>
<path d="M69.6215 138.934L64.4653 123.729L63.1435 125.051C64.1571 130.472 65.5761 140.838 63.1435 138.934C60.1027 136.554 58.7806 141.71 59.9705 142.9C61.1604 144.09 64.4653 143.032 68.035 142.9C70.8907 142.794 70.2825 140.212 69.6215 138.934Z" fill="#EF8C67"/>
<path d="M67.5058 107.353C67.5058 109.658 69.766 110.465 71.4419 110.465C73.1179 110.465 75.4492 110.055 75.4492 107.75C75.4492 105.446 73.1179 109.339 71.4419 109.339C69.766 109.339 67.5058 105.048 67.5058 107.353Z" fill="#141414"/>
<path d="M56.0097 109.111C56.1421 107.522 56.0892 104.265 54.8182 103.948C53.2295 103.55 52.833 103.55 52.4352 104.742C51.8316 106.551 52.7 108.184 52.8324 108.714C52.9648 109.111 53.1501 109.985 52.8324 110.303C52.4352 110.7 51.4024 110.382 50.4494 111.097C48.8613 112.289 48.1016 114.721 50.4494 117.85C51.6415 119.439 54.0245 119.359 57.2012 119.042C58.5251 118.909 61.0935 118.247 60.7758 116.658C60.4638 115.098 58.5956 115.198 57.6507 115.452C58.1679 115.295 58.7529 114.71 59.1877 114.275C59.982 113.481 59.501 112.644 58.7905 112.289C58.3377 112.063 57.6269 111.965 57.0993 111.997C58.1983 111.24 59.8501 109.407 56.0097 109.111Z" fill="#EF8C67"/>
<path d="M56.0097 109.111C56.1421 107.522 56.0892 104.265 54.8182 103.948C53.2295 103.55 52.833 103.55 52.4352 104.742C51.8316 106.551 52.7 108.184 52.8324 108.714C52.9648 109.111 53.1501 109.985 52.8324 110.303C52.4352 110.7 51.4024 110.382 50.4494 111.097C48.8613 112.289 48.1016 114.721 50.4494 117.85C51.6415 119.439 54.0245 119.359 57.2012 119.042C58.5251 118.909 61.0935 118.247 60.7758 116.658C60.458 115.069 58.5255 115.202 57.599 115.467C58.1286 115.334 58.7383 114.724 59.1877 114.275C59.982 113.481 59.501 112.644 58.7905 112.289C57.9962 111.892 56.4075 111.892 56.4075 112.289C56.4075 112.686 61.1735 109.508 56.0097 109.111Z" stroke="black" stroke-width="0.794405"/>
<path d="M89.6885 120.454C93.0596 122.048 105.602 116.26 104.808 112.293C104.809 101.568 94.6749 115.93 91.3039 114.336C87.9328 112.741 85.9566 112.551 85.1127 114.335C84.2688 116.12 86.3175 118.86 89.6885 120.454Z" fill="#EF8C67"/>
</g>
</g>
</g>
<rect width="45.5412" height="45.5419" rx="12.4296" transform="matrix(0.794345 0.607467 -0.607595 0.794248 34.7109 68.1963)" fill="#EF8C67"/>
<path d="M36.2785 99.6231C39.9233 98.6506 39.7402 102.608 39.288 103.788C38.8358 104.967 34.62 109.402 28.0135 104.364C35.1613 105.633 32.6337 100.596 36.2785 99.6231Z" fill="#6D5F5A"/>
<path d="M41.9548 99.0762C38.1911 98.8214 39.1306 102.671 39.8009 103.741C40.4712 104.812 45.46 108.355 50.9764 102.142C44.2052 104.76 45.7186 99.331 41.9548 99.0762Z" fill="#6D5F5A"/>
<ellipse cx="30.3262" cy="94.7719" rx="5.55279" ry="5.55318" fill="black"/>
<ellipse cx="31.4812" cy="93.998" rx="2.10623" ry="2.10638" fill="white"/>
<ellipse cx="45.9203" cy="92.9216" rx="4.62732" ry="4.62765" fill="black"/>
<ellipse cx="46.5521" cy="91.643" rx="1.75519" ry="1.75532" fill="white"/>
<path d="M53.7188 92.9205C56.8918 92.9205 60.4619 91.2017 58.0822 86.3096" stroke="black" stroke-width="0.793378" stroke-linecap="round" stroke-linejoin="round" stroke-dasharray="1.85 1.85"/>
<rect x="38.2379" y="85.7809" width="15.0717" height="14.2795" rx="7.13976" fill="white" fill-opacity="0.3" stroke="black" stroke-width="1.05784"/>
<path d="M60.2659 108.714C64.2376 110.7 64.5553 121.425 49.9395 119.836L60.2659 108.714Z" fill="#EF8C67"/>
<path d="M29.9117 138.934L35.0679 123.729L36.3897 125.051C35.3761 130.472 33.9571 140.838 36.3897 138.934C39.4305 136.554 40.7526 141.71 39.5627 142.9C38.3728 144.09 35.0679 143.032 31.4982 142.9C28.6425 142.794 29.2507 140.212 29.9117 138.934Z" fill="#EF8C67"/>
<path d="M41.814 138.934L46.9702 123.729L48.292 125.051C47.2784 130.472 45.8594 140.838 48.292 138.934C51.3329 136.554 52.655 141.71 51.4651 142.9C50.2752 144.09 46.9702 143.032 43.4006 142.9C40.5448 142.794 41.153 140.212 41.814 138.934Z" fill="#EF8C67"/>
<path d="M43.9317 107.354C43.9317 109.659 41.6715 110.466 39.9956 110.466C38.3196 110.466 35.9883 110.056 35.9883 107.751C35.9883 105.447 38.3196 109.34 39.9956 109.34C41.6715 109.34 43.9317 105.049 43.9317 107.354Z" fill="#141414"/>
<path d="M55.4278 109.111C55.2954 107.522 55.3483 104.265 56.6193 103.948C58.208 103.55 58.6045 103.55 59.0023 104.742C59.6059 106.551 58.7375 108.184 58.6051 108.714C58.4727 109.111 58.2874 109.985 58.6051 110.303C59.0023 110.7 60.0351 110.382 60.9881 111.097C62.5762 112.289 63.3359 114.721 60.9881 117.85C59.796 119.439 57.413 119.359 54.2363 119.042C52.9124 118.909 50.344 118.247 50.6617 116.658C50.9737 115.098 52.8419 115.198 53.7868 115.452C53.2696 115.295 52.6846 114.71 52.2498 114.275C51.4555 113.481 51.9365 112.644 52.647 112.289C53.0998 112.063 53.8106 111.965 54.3382 111.997C53.2392 111.24 51.5874 109.407 55.4278 109.111Z" fill="#EF8C67"/>
<path d="M55.4278 109.111C55.2954 107.522 55.3483 104.265 56.6193 103.948C58.208 103.55 58.6045 103.55 59.0023 104.742C59.6059 106.551 58.7375 108.184 58.6051 108.714C58.4727 109.111 58.2874 109.985 58.6051 110.303C59.0023 110.7 60.0351 110.382 60.9881 111.097C62.5762 112.289 63.3359 114.721 60.9881 117.85C59.796 119.439 57.413 119.359 54.2363 119.042C52.9124 118.909 50.344 118.247 50.6617 116.658C50.9795 115.069 52.912 115.202 53.8385 115.467C53.3089 115.334 52.6992 114.724 52.2498 114.275C51.4555 113.481 51.9365 112.644 52.647 112.289C53.4413 111.892 55.03 111.892 55.03 112.289C55.03 112.686 50.264 109.508 55.4278 109.111Z" stroke="black" stroke-width="0.794405"/>
<path d="M21.7509 120.454C18.3798 122.048 5.8375 116.26 6.6313 112.293C6.63044 101.568 16.7645 115.93 20.1356 114.336C23.5067 112.741 25.4828 112.551 26.3267 114.335C27.1707 116.12 25.122 118.86 21.7509 120.454Z" fill="#EF8C67"/>
</svg>
