<svg width="22" height="18" viewBox="0 0 22 18" fill="none" xmlns="http://www.w3.org/2000/svg">
<mask id="path-1-inside-1_1073_34984" fill="white">
<path fill-rule="evenodd" clip-rule="evenodd" d="M8.10633 13.845C10.5352 22.5887 21.0352 14.9352 21.0352 9.73469C21.0352 4.5342 16.3341 0.318359 10.5352 0.318359C4.73617 0.318359 0.0351562 4.5342 0.0351562 9.73469C0.0351562 12.9217 2.64527 12.9603 4.92444 12.9941C6.36442 13.0154 7.6723 13.0348 8.10633 13.845ZM11.3414 13.8822C10.5791 16.0318 13.7851 15.9017 14.5289 14.8236C15.2727 13.7455 14.9305 12.2194 13.7645 11.4149C12.5985 10.6105 11.0503 10.8323 10.3065 11.9105C9.85062 12.5711 10.3699 12.9412 10.8233 13.2644C11.1098 13.4686 11.37 13.654 11.3414 13.8822Z"/>
</mask>
<path fill-rule="evenodd" clip-rule="evenodd" d="M8.10633 13.845C10.5352 22.5887 21.0352 14.9352 21.0352 9.73469C21.0352 4.5342 16.3341 0.318359 10.5352 0.318359C4.73617 0.318359 0.0351562 4.5342 0.0351562 9.73469C0.0351562 12.9217 2.64527 12.9603 4.92444 12.9941C6.36442 13.0154 7.6723 13.0348 8.10633 13.845ZM11.3414 13.8822C10.5791 16.0318 13.7851 15.9017 14.5289 14.8236C15.2727 13.7455 14.9305 12.2194 13.7645 11.4149C12.5985 10.6105 11.0503 10.8323 10.3065 11.9105C9.85062 12.5711 10.3699 12.9412 10.8233 13.2644C11.1098 13.4686 11.37 13.654 11.3414 13.8822Z" fill="#B2794B"/>
<path d="M8.10633 13.845L9.42301 13.4792L9.38246 13.3333L9.3109 13.1997L8.10633 13.845ZM4.92444 12.9941L4.90419 14.3605H4.90419L4.92444 12.9941ZM14.5289 14.8236L15.6537 15.5997L14.5289 14.8236ZM11.3414 13.8822L12.6294 14.3389L12.6789 14.1993L12.6973 14.0522L11.3414 13.8822ZM13.7645 11.4149L14.5405 10.2901L14.5405 10.2901L13.7645 11.4149ZM10.3065 11.9105L9.18165 11.1344L10.3065 11.9105ZM10.8233 13.2644L10.0302 14.3772L10.8233 13.2644ZM19.6686 9.73469C19.6686 10.6106 19.2041 11.7726 18.2786 12.9606C17.3716 14.1247 16.1383 15.1601 14.8684 15.7977C13.5771 16.446 12.4266 16.6004 11.5734 16.3232C10.802 16.0726 9.9452 15.3591 9.42301 13.4792L6.78964 14.2107C7.48186 16.7027 8.84835 18.3115 10.7288 18.9225C12.5275 19.5069 14.4574 19.0623 16.0947 18.2402C17.7534 17.4073 19.2969 16.1007 20.4346 14.6403C21.5537 13.2039 22.4017 11.459 22.4017 9.73469H19.6686ZM10.5352 1.6849C15.7232 1.6849 19.6686 5.42511 19.6686 9.73469H22.4017C22.4017 3.64328 16.9451 -1.04818 10.5352 -1.04818V1.6849ZM1.4017 9.73469C1.4017 5.42511 5.34708 1.6849 10.5352 1.6849V-1.04818C4.12525 -1.04818 -1.33139 3.64328 -1.33139 9.73469H1.4017ZM4.94469 11.6277C3.72236 11.6096 2.80799 11.5742 2.17524 11.2959C1.90882 11.1788 1.74843 11.0386 1.64017 10.8639C1.52627 10.6801 1.4017 10.3466 1.4017 9.73469H-1.33139C-1.33139 10.7163 -1.12969 11.5827 -0.682976 12.3036C-0.230615 13.0335 0.403975 13.5027 1.07498 13.7978C2.31709 14.344 3.84735 14.3448 4.90419 14.3605L4.94469 11.6277ZM9.3109 13.1997C8.79847 12.2432 7.84448 11.9163 7.15266 11.7822C6.44758 11.6455 5.62644 11.6378 4.94468 11.6277L4.90419 14.3605C5.66242 14.3717 6.21522 14.3844 6.63257 14.4653C7.06319 14.5488 6.98015 14.6367 6.90175 14.4903L9.3109 13.1997ZM13.4041 14.0476C13.4351 14.0026 13.4475 14.0057 13.4011 14.0359C13.3572 14.0645 13.2837 14.1021 13.1803 14.1364C12.9635 14.2081 12.7224 14.2305 12.5424 14.2076C12.3377 14.1817 12.4035 14.1305 12.5064 14.2677C12.5651 14.3459 12.5873 14.4273 12.5911 14.474C12.5939 14.5089 12.5824 14.4715 12.6294 14.3389L10.0535 13.4255C9.76203 14.2473 9.75853 15.1592 10.3201 15.9078C10.8331 16.5916 11.6039 16.8435 12.1983 16.919C12.8175 16.9975 13.4697 16.9196 14.0394 16.7309C14.5832 16.5508 15.2342 16.2078 15.6537 15.5997L13.4041 14.0476ZM12.9885 12.5398C13.6179 12.974 13.6632 13.6721 13.4041 14.0476L15.6537 15.5997C16.8823 13.819 16.2431 11.4648 14.5405 10.2901L12.9885 12.5398ZM11.4313 12.6865C11.6904 12.311 12.3591 12.1055 12.9885 12.5398L14.5405 10.2901C12.8379 9.11548 10.4102 9.35373 9.18165 11.1344L11.4313 12.6865ZM11.6165 12.1516C11.4937 12.0641 11.4279 12.016 11.3776 11.9728C11.3271 11.9294 11.3543 11.9421 11.3952 12.0101C11.4475 12.0971 11.5069 12.251 11.495 12.441C11.4839 12.6175 11.4184 12.7051 11.4313 12.6865L9.18165 11.1344C8.96658 11.4461 8.79505 11.8278 8.76729 12.2696C8.73869 12.7249 8.87079 13.1154 9.05264 13.418C9.3583 13.9265 9.87218 14.2646 10.0302 14.3772L11.6165 12.1516ZM12.6973 14.0522C12.7892 13.3195 12.3809 12.8187 12.182 12.6134C11.9796 12.4046 11.7277 12.2309 11.6165 12.1516L10.0302 14.3772C10.1065 14.4316 10.154 14.4657 10.1933 14.4961C10.2329 14.5267 10.2345 14.5312 10.2191 14.5152C10.206 14.5017 10.1379 14.4305 10.0769 14.3012C10.0085 14.1563 9.95564 13.9502 9.98549 13.7122L12.6973 14.0522Z" fill="#472B29" mask="url(#path-1-inside-1_1073_34984)"/>
<path d="M7.54818 9.82727C7.47019 10.5453 5.5744 10.0264 4.5691 9.91718C2.66682 10.4747 2.81206 9.13739 2.89005 8.41932C2.96803 7.70125 3.84621 7.20765 4.85151 7.31682C5.85681 7.426 7.62616 9.1092 7.54818 9.82727Z" fill="#FFC101"/>
<path d="M7.99542 7.12881C7.56841 7.71136 6.64343 7.31365 5.82785 6.71584C3.90202 6.2461 4.69728 5.16115 5.12429 4.5786C5.5513 3.99605 7.63619 3.31749 8.45177 3.9153C9.26734 4.51311 8.42243 6.54625 7.99542 7.12881Z" fill="#5C6D5A"/>
<path d="M9.76498 4.8606C9.45344 4.20894 9.00538 3.09321 9.9177 2.65706C11.2419 1.18198 11.8221 2.39561 12.1337 3.04727C12.4452 3.69892 12.0577 5.85693 11.1454 6.29308C10.2331 6.72923 10.0765 5.51225 9.76498 4.8606Z" fill="#C05E53"/>
<path d="M13.3235 4.55484C13.7521 3.97349 14.5262 3.05344 15.3401 3.65354C17.2646 4.12869 16.4663 5.2114 16.0376 5.79275C15.609 6.3741 13.5222 7.0468 12.7083 6.4467C11.8944 5.8466 12.8948 5.13619 13.3235 4.55484Z" fill="#ECB074"/>
</svg>
