<svg width="322" height="322" viewBox="0 0 322 322" fill="none" xmlns="http://www.w3.org/2000/svg">
<circle cx="161" cy="161" r="161" fill="#135A9B"/>
<circle cx="161" cy="157" r="145" fill="#6291D9"/>
<ellipse cx="161" cy="157.5" rx="134" ry="129.5" fill="#9BC2FC"/>
<rect width="86.5196" height="86.5187" rx="23.613" transform="matrix(0.794361 0.607446 -0.607615 0.794232 140.576 52.0225)" fill="#EF8C67"/>
<path d="M143.535 111.731C150.454 109.885 150.107 117.397 149.248 119.636C148.39 121.875 140.388 130.292 127.847 120.73C141.415 123.138 136.617 113.577 143.535 111.731Z" fill="#6D5F5A"/>
<path d="M154.352 110.687C147.208 110.203 148.991 117.509 150.263 119.542C151.536 121.574 161.005 128.299 171.476 116.507C158.623 121.475 161.496 111.171 154.352 110.687Z" fill="#6D5F5A"/>
<ellipse cx="132.243" cy="102.505" rx="10.5498" ry="10.5494" fill="black"/>
<ellipse cx="134.433" cy="101.033" rx="4.00163" ry="4.00148" fill="white"/>
<ellipse cx="161.864" cy="98.9899" rx="8.79147" ry="8.79114" fill="black"/>
<ellipse cx="163.067" cy="96.5626" rx="3.3347" ry="3.33457" fill="white"/>
<path d="M176.688 98.9909C182.716 98.9909 189.499 95.7256 184.978 86.4321" stroke="black" stroke-width="1.50721" stroke-linecap="round" stroke-linejoin="round" stroke-dasharray="3.52 3.52"/>
<rect x="147.282" y="85.4291" width="28.6349" height="27.1267" rx="13.5634" fill="white" fill-opacity="0.3" stroke="black" stroke-width="2.00962"/>
<path d="M131.461 186.401L141.258 157.516L143.769 160.028C141.843 170.326 139.147 190.018 143.769 186.401C149.546 181.88 152.058 191.676 149.798 193.937C147.537 196.197 141.258 194.188 134.476 193.937C129.05 193.736 130.206 188.829 131.461 186.401Z" fill="#EF8C67"/>
<path d="M154.079 186.402L163.875 157.517L166.386 160.029C164.46 170.327 161.764 190.019 166.386 186.402C172.164 181.881 174.675 191.677 172.415 193.938C170.154 196.198 163.875 194.189 157.093 193.938C151.667 193.737 152.823 188.83 154.079 186.402Z" fill="#EF8C67"/>
<path d="M156.392 128.917C156.392 133.295 153.811 136.844 150.627 136.844C147.443 136.844 144.861 133.295 144.861 128.917C144.861 124.539 147.443 128.917 150.627 128.917C153.811 128.917 156.392 124.539 156.392 128.917Z" fill="#141414"/>
<path d="M96.3167 72.9479C101.93 79.6476 111.284 102.259 115.26 112.727C117.833 114.355 122.276 117.752 119.47 118.31C115.962 119.008 91.4053 88.3017 89.3005 85.5101C87.1956 82.7186 75.2682 77.8335 73.1633 72.9479C71.0584 68.0624 78.7762 65.9692 80.8811 65.2713C82.9859 64.5734 89.3005 64.5734 96.3167 72.9479Z" fill="#EF8C67"/>
<path d="M205.602 70.3243C199.837 77.2425 190.228 100.592 186.144 111.402C183.502 113.083 178.937 116.591 181.82 117.167C185.423 117.888 210.647 86.1791 212.809 83.2965C214.971 80.4138 227.222 75.3693 229.384 70.3243C231.546 65.2792 223.619 63.1177 221.457 62.3971C219.295 61.6764 212.809 61.6764 205.602 70.3243Z" fill="#EF8C67"/>
<path d="M248.743 135.111C248.148 133.332 246.415 133.246 243.502 132.912C242.091 137.557 239.401 147.01 239.929 147.658C240.588 148.468 246.754 147.732 247.722 146.387C248.689 145.042 249.487 137.336 248.743 135.111Z" fill="#FF7448"/>
<path d="M244.049 135.511C244.049 145.559 236.58 153.705 227.366 153.705C218.153 153.705 210.684 145.559 210.684 135.511C210.684 125.464 218.153 109.207 227.366 109.207C236.58 109.207 244.049 125.464 244.049 135.511Z" fill="#FAE561"/>
<path d="M226.87 137.214C229.662 137.476 232.165 136.218 232.964 134.197" stroke="black" stroke-width="1.70862" stroke-linecap="round"/>
<g filter="url(#filter0_f_1591_39220)">
<ellipse cx="236.413" cy="133.772" rx="2.3171" ry="2.31765" fill="#F86464" fill-opacity="0.4"/>
</g>
<g filter="url(#filter1_f_1591_39220)">
<ellipse cx="221.569" cy="134.699" rx="2.3171" ry="2.31765" fill="#F86464" fill-opacity="0.4"/>
</g>
<ellipse cx="223.258" cy="129.421" rx="4.0021" ry="4.00306" fill="black"/>
<ellipse cx="234.012" cy="128.041" rx="4.0021" ry="4.00306" fill="black"/>
<ellipse opacity="0.4" cx="3.12838" cy="1.27458" rx="3.12838" ry="1.27458" transform="matrix(0.769551 -0.638586 0.638079 0.769971 219.947 114.36)" fill="white"/>
<path d="M237.706 140.446C237.946 137.538 242.555 134.829 244.455 134.003C244.23 133.617 243.765 132.846 243.705 132.846C243.63 132.846 240.85 133.934 239.656 134.746C237.929 135.921 236.571 136.598 235.907 138.711C235.495 140.024 235.757 142.263 235.757 142.263C235.757 142.263 235.82 144.859 236.132 146.476C236.38 147.764 236.882 149.45 237.032 149.698C237.152 149.896 238.031 149.175 238.456 148.789L238.231 148.128C237.956 146.779 237.467 143.354 237.706 140.446Z" fill="#FF7448"/>
<path d="M217.807 141.41C217.554 138.576 212.689 135.935 210.684 135.13C210.921 134.755 211.412 134.003 211.475 134.003C211.554 134.003 214.489 135.063 215.749 135.855C217.572 137 219.006 137.66 219.707 139.719C220.142 140.998 219.865 143.181 219.865 143.181C219.865 143.181 219.799 145.71 219.469 147.286C219.207 148.541 218.678 150.184 218.52 150.426C218.393 150.619 217.464 149.916 217.016 149.54L217.253 148.896C217.543 147.581 218.061 144.243 217.807 141.41Z" fill="#FF7448"/>
<path d="M228.316 154.281C228.316 156.137 227.158 159.499 225.768 157.642C223.682 159.496 223.219 156.137 223.219 154.281C223.219 152.425 224.36 150.921 225.768 150.921C227.175 150.921 228.316 152.425 228.316 154.281Z" fill="#FAE561"/>
<path d="M234.318 154.048C234.318 155.904 233.16 159.265 231.77 157.409C229.684 159.263 229.221 155.904 229.221 154.048C229.221 152.192 230.362 150.688 231.77 150.688C233.177 150.688 234.318 152.192 234.318 154.048Z" fill="#FAE561"/>
<path d="M209.149 133.901C212.556 136.6 214.567 139.735 213.64 140.905C212.714 142.075 209.201 140.835 205.794 138.137C202.388 135.439 203.68 130.977 204.606 129.807C208.321 129.132 205.742 131.203 209.149 133.901Z" fill="#FAE561"/>
<path d="M243.963 134.652C245.926 130.891 248.565 128.388 249.856 129.062C251.147 129.736 250.603 133.332 248.64 137.093C246.677 140.854 242.161 140.433 240.87 139.759C239.541 136.321 242 138.413 243.963 134.652Z" fill="#FAE561"/>
<path d="M231.404 128.292V128.292C232.608 128.064 233.558 127.137 233.816 125.939L233.925 125.432L233.95 125.713C234.076 127.093 235.177 128.182 236.558 128.292V128.292L236.421 128.339C235.066 128.796 234.076 129.966 233.849 131.378V131.378L233.719 130.639C233.509 129.452 232.588 128.518 231.404 128.292V128.292Z" fill="#FFDA56"/>
<path d="M220.445 129.288V129.288C221.649 129.06 222.599 128.133 222.857 126.935L222.966 126.429L222.991 126.709C223.117 128.089 224.218 129.178 225.599 129.288V129.288L225.462 129.335C224.107 129.792 223.117 130.962 222.89 132.374V132.374L222.76 131.636C222.55 130.448 221.629 129.514 220.445 129.288V129.288Z" fill="#FFDA56"/>
<rect x="206.99" y="158.021" width="44.83" height="8.96597" rx="1.99244" fill="#9DB988"/>
<rect x="199.02" y="164.996" width="58.7771" height="8.96597" rx="1.99244" fill="#FFAE35"/>
<path d="M96.4079 54.1199L102.495 53.0601C106.486 52.3653 109.635 49.2789 110.41 45.3017L112.259 35.8093L113.065 43.2495C113.693 49.0547 118.303 53.6247 124.113 54.202L129.522 54.7396L118.859 58.205C116.24 59.056 114.336 61.3262 113.954 64.0533L112.49 74.4971L111.086 67.1961C109.874 60.8969 105.006 55.9378 98.7306 54.611L96.4079 54.1199Z" fill="#FFDA56"/>
<path d="M116.906 69.9801L121.822 69.0477C124.291 68.5792 126.24 66.6775 126.769 64.2202L128.316 57.0366L128.813 62.4905C129.162 66.3195 132.218 69.3406 136.05 69.6462L140.236 69.9801L132.278 72.6637C130.656 73.2105 129.471 74.6109 129.201 76.3005L127.975 83.9456L127.031 78.605C126.294 74.4355 123.058 71.155 118.899 70.3608L116.906 69.9801Z" fill="#FFDA56"/>
<defs>
<filter id="filter0_f_1591_39220" x="232.387" y="129.746" width="8.052" height="8.05249" filterUnits="userSpaceOnUse" color-interpolation-filters="sRGB">
<feFlood flood-opacity="0" result="BackgroundImageFix"/>
<feBlend mode="normal" in="SourceGraphic" in2="BackgroundImageFix" result="shape"/>
<feGaussianBlur stdDeviation="0.854308" result="effect1_foregroundBlur_1591_39220"/>
</filter>
<filter id="filter1_f_1591_39220" x="217.543" y="130.673" width="8.052" height="8.05249" filterUnits="userSpaceOnUse" color-interpolation-filters="sRGB">
<feFlood flood-opacity="0" result="BackgroundImageFix"/>
<feBlend mode="normal" in="SourceGraphic" in2="BackgroundImageFix" result="shape"/>
<feGaussianBlur stdDeviation="0.854308" result="effect1_foregroundBlur_1591_39220"/>
</filter>
</defs>
</svg>
