<svg width="126" height="206" viewBox="0 0 126 206" fill="none" xmlns="http://www.w3.org/2000/svg">
<path fill-rule="evenodd" clip-rule="evenodd" d="M0 203.422C7.39534 205.109 15.0936 206 23 206C79.8853 206 126 159.885 126 103C126 46.1147 79.8853 0 23 0C15.0936 0 7.39534 0.890824 0 2.57758V203.422Z" fill="#2A5996"/>
<path fill-rule="evenodd" clip-rule="evenodd" d="M0 185.89C7.32088 187.917 15.034 189 23 189C70.4965 189 109 150.496 109 103C109 55.5035 70.4965 17 23 17C15.034 17 7.32088 18.0831 0 20.11V185.89Z" fill="#6C90D3"/>
<path fill-rule="evenodd" clip-rule="evenodd" d="M0 168.074C7.19392 170.616 14.9354 172 23 172C61.1077 172 92 141.108 92 103C92 64.8924 61.1077 34 23 34C14.9354 34 7.19392 35.3835 0 37.9262V168.074Z" fill="#A3C1F7"/>
<rect width="43.5012" height="43.5013" rx="11.8716" transform="matrix(0.794308 0.607515 -0.607546 0.794284 46.4062 72.1104)" fill="#EF8C67"/>
<path d="M47.8995 102.131C51.378 101.203 51.2034 104.98 50.7718 106.106C50.3401 107.231 46.3167 111.464 40.0115 106.656C46.8332 107.867 44.421 103.059 47.8995 102.131Z" fill="#6D5F5A"/>
<path d="M53.1008 101.63C49.5088 101.387 50.4054 105.06 51.0451 106.082C51.6848 107.104 56.4459 110.485 61.7107 104.556C55.2484 107.054 56.6928 101.873 53.1008 101.63Z" fill="#6D5F5A"/>
<ellipse cx="42.2202" cy="97.4937" rx="5.30421" ry="5.30429" fill="black"/>
<ellipse cx="43.3264" cy="96.7522" rx="2.01194" ry="2.01197" fill="white"/>
<ellipse cx="57.1077" cy="95.7249" rx="4.42018" ry="4.42024" fill="black"/>
<ellipse cx="57.7118" cy="94.5048" rx="1.67662" ry="1.67664" fill="white"/>
<path d="M64.5605 95.7258C67.5915 95.7258 71.0019 94.084 68.7286 89.4111" stroke="black" stroke-width="0.757765" stroke-linecap="round" stroke-linejoin="round" stroke-dasharray="1.77 1.77"/>
<rect x="49.7767" y="88.9075" width="14.3971" height="13.6396" rx="6.8198" fill="white" fill-opacity="0.3" stroke="black" stroke-width="1.01035"/>
<path d="M41.8245 139.676L46.7498 125.152L48.0125 126.415C47.0443 131.593 45.6887 141.495 48.0125 139.676C50.9172 137.403 52.1801 142.328 51.0435 143.465C49.9068 144.601 46.7498 143.591 43.34 143.465C40.6121 143.364 41.193 140.897 41.8245 139.676Z" fill="#EF8C67"/>
<path d="M53.1878 139.677L58.1131 125.153L59.3758 126.416C58.4075 131.594 57.052 141.496 59.3758 139.677C62.2805 137.404 63.5434 142.329 62.4067 143.466C61.2701 144.602 58.1131 143.592 54.7033 143.466C51.9754 143.365 52.5563 140.898 53.1878 139.677Z" fill="#EF8C67"/>
<path d="M25.1875 117.702C27.0061 118.005 32.2598 116.229 34.6593 115.303L31.123 112.903C30.1127 113.408 27.9153 114.444 27.208 114.545C26.5008 114.646 22.4511 113.493 20.5146 112.903C20.9777 112.693 21.8533 111.918 21.6512 110.504C21.3986 108.735 19.1255 109.114 18.3678 108.988C17.61 108.862 15.7157 110.125 15.842 112.903C15.9682 115.682 22.9142 117.323 25.1875 117.702Z" fill="#EF8C67"/>
<path d="M72.9046 113.303C71.1476 113.591 66.0718 111.9 63.7536 111.019L67.1701 108.735C68.1462 109.215 70.2692 110.201 70.9525 110.297C71.6358 110.394 75.5483 109.296 77.4192 108.735C76.9718 108.534 76.1259 107.797 76.3211 106.451C76.5651 104.768 78.7613 105.128 79.4934 105.008C80.2254 104.888 82.0557 106.09 81.9336 108.735C81.8116 111.379 75.1009 112.942 72.9046 113.303Z" fill="#EF8C67"/>
<path d="M71.3442 76.7363C72.0444 77.5795 72.8845 79.4075 70.644 79.9741M70.644 79.9741C68.4035 80.5407 68.3102 78.6587 68.5435 77.6469L68.8435 77.0398C68.2767 76.399 67.6633 75.0364 69.7437 74.7126C69.6438 73.8695 69.964 72.3652 72.0445 73.0937C72.4113 72.4192 73.3848 71.4344 74.345 72.8914M70.644 79.9741C72.1643 81.593 73.0113 80.3788 73.2448 79.5694C74.4451 81.9978 75.6787 80.851 76.1454 79.9741M74.345 72.8914C73.2781 74.2067 72.0445 76.8779 75.6453 77.0398M74.345 72.8914C75.6453 72.2505 78.2459 71.7176 78.2459 74.7126C79.2128 74.7801 80.7465 75.4614 79.1461 77.6469M77.7458 77.0398C78.6127 77.0061 80.0864 77.4041 79.0461 79.2659C78.0059 81.1276 76.6789 80.5137 76.1454 79.9741M76.1454 79.9741C75.9121 79.8055 75.4853 79.3266 75.6453 78.76M76.4455 72.5879C77.0457 73.4985 77.6258 75.2186 75.1452 74.8139M70.4441 68.9453L72.0445 71.4749M78.2459 69.2489L76.8456 71.4749M80.6465 76.3316L84.0473 75.6233M79.0461 80.8848L81.4467 83.4143M74.9452 82.099L74.5451 85.6403M70.4441 81.3907L66.7433 83.7179M67.3434 76.3316H63.6426M65.343 70.5642L68.5435 73.2961" stroke="#EE4B4B" stroke-width="0.927509"/>
<path d="M17.3141 84.7919C16.5033 83.9347 14.8817 81.8571 14.8817 80.4049M17.3141 84.7919V86.9097M17.3141 84.7919H19.7939M15.4898 75.7154C17.6182 72.8412 24.0049 73.9517 24.3075 77.682C24.4592 79.5534 23.7906 81.7967 22.3311 83.733L22.2736 84.7919M19.7466 72.6899V65.4287M24.3075 74.8078L28.2602 70.4208M26.1318 78.8922L32.365 79.346M24.3075 83.733L29.3244 87.061M14.8817 83.733L11.385 87.061M13.3614 78.8922H7.73633M15.4898 74.8078L11.385 70.4208M22.2736 84.7919L22.1585 86.9097M22.2736 84.7919H19.7939M17.3141 86.9097H22.1585M17.3141 86.9097V88.5738M22.1585 86.9097L22.0681 88.5738M17.3141 88.5738V89.0276C18.7736 91.8111 20.9628 90.4899 22.027 89.3302L22.0681 88.5738M17.3141 88.5738H22.0681M19.7939 84.7919C20.4876 83.5313 21.7838 81.01 21.4189 81.01C20.9628 81.01 19.5946 78.7409 18.8344 81.01C18.2263 82.8253 19.2207 84.2876 19.7939 84.7919Z" stroke="#FFEF5E" stroke-width="1.09117"/>
<ellipse cx="52.2153" cy="113.073" rx="2.9887" ry="3.69193" fill="#282727"/>
</svg>
