<svg width="126" height="206" viewBox="0 0 126 206" fill="none" xmlns="http://www.w3.org/2000/svg">
<path fill-rule="evenodd" clip-rule="evenodd" d="M0 203.422C7.39534 205.109 15.0936 206 23 206C79.8853 206 126 159.885 126 103C126 46.1147 79.8853 0 23 0C15.0936 0 7.39534 0.890824 0 2.57758V203.422Z" fill="#2A5996"/>
<path fill-rule="evenodd" clip-rule="evenodd" d="M0 185.89C7.32088 187.917 15.034 189 23 189C70.4965 189 109 150.496 109 103C109 55.5035 70.4965 17 23 17C15.034 17 7.32088 18.0831 0 20.11V185.89Z" fill="#6C90D3"/>
<path fill-rule="evenodd" clip-rule="evenodd" d="M0 168.074C7.19392 170.616 14.9354 172 23 172C61.1077 172 92 141.108 92 103C92 64.8924 61.1077 34 23 34C14.9354 34 7.19392 35.3835 0 37.9262V168.074Z" fill="#A3C1F7"/>
<path fill-rule="evenodd" clip-rule="evenodd" d="M75.582 91.5898C76.8996 92.6259 80.4278 94.0763 83.9998 91.5898V97.214C83.6095 98.99 82.2577 102.557 79.9739 102.616C77.6901 102.675 76.1432 99.2367 75.6552 97.51L75.582 91.5898ZM78.876 95.7339H76.9728C77.0704 95.4626 77.3231 94.8994 77.9203 94.8994C78.6218 94.8994 78.8272 95.3639 78.876 95.7339ZM82.3895 97.954C80.6327 99.1972 78.2924 98.4905 77.2188 97.9725C77.1456 98.4165 77.9322 101 79.9739 100.766C81.6616 100.573 82.3407 98.842 82.3895 97.954ZM82.5359 95.7339H80.6327C80.7303 95.4626 81.0644 94.8994 81.6616 94.8994C82.1292 94.8994 82.4871 95.3639 82.5359 95.7339Z" fill="#F9BF6A"/>
<path d="M76.9728 94.9486C77.3144 94.4306 78.1733 93.7054 78.876 94.9486M80.6327 94.9486C80.9743 94.4306 81.8332 93.7054 82.5359 94.9486M75.582 91.5898C76.8996 92.6259 80.4278 94.0763 83.9998 91.5898V97.214C83.6095 98.99 82.2577 102.557 79.9739 102.616C77.6901 102.675 76.1432 99.2367 75.6552 97.51L75.582 91.5898ZM76.9728 95.7339H78.876C78.8272 95.3639 78.6218 94.8994 77.9203 94.8994C77.3231 94.8994 77.0704 95.4626 76.9728 95.7339ZM77.2188 97.9725C78.2924 98.4905 80.6327 99.1972 82.3895 97.954C82.3407 98.842 81.6616 100.573 79.9739 100.766C77.9322 101 77.1456 98.4165 77.2188 97.9725ZM80.6327 95.7339H82.5359C82.4871 95.3639 82.1292 94.8994 81.6616 94.8994C81.0644 94.8994 80.7303 95.4626 80.6327 95.7339Z" stroke="#4D3B3B" stroke-width="0.0438461"/>
<rect x="11.9297" y="70.916" width="9.99615" height="9.97558" rx="0.840383" fill="#F0D796"/>
<ellipse cx="14.7005" cy="73.1338" rx="1.11068" ry="1.1084" fill="#AA6262"/>
<ellipse cx="19.1478" cy="78.6768" rx="1.11068" ry="1.1084" fill="#AA6262"/>
<ellipse cx="16.9349" cy="75.9033" rx="1.11068" ry="1.1084" fill="#AA6262"/>
<rect width="45.2727" height="45.2497" rx="14.1176" transform="matrix(0.794877 0.606771 -0.608291 0.793714 40.2109 69.2744)" fill="#EF8C67"/>
<path d="M41.0296 112.288C45.0442 109.972 48.5229 109.817 51.437 109.813" stroke="black" stroke-width="1.73755" stroke-linecap="round"/>
<path d="M43.3255 86.3699C48.2691 87.1233 51.7732 85.6913 54.6556 84.3501" stroke="black" stroke-width="1.73755" stroke-linecap="round"/>
<path d="M41.7568 100.478C45.3792 99.5139 45.198 103.441 44.7487 104.611C44.2994 105.782 40.1102 110.181 33.5431 105.181C40.6475 106.442 38.1344 101.443 41.7568 100.478Z" fill="#6D5F5A"/>
<path d="M47.1796 99.9545C43.4388 99.701 44.3732 103.521 45.0396 104.583C45.706 105.646 50.6649 109.162 56.1466 102.999C49.4172 105.595 50.9204 100.208 47.1796 99.9545Z" fill="#6D5F5A"/>
<ellipse cx="35.8425" cy="95.658" rx="5.52419" ry="5.5135" fill="black"/>
<ellipse cx="36.9801" cy="94.8882" rx="2.09538" ry="2.09133" fill="white"/>
<ellipse cx="51.3613" cy="93.8221" rx="4.60349" ry="4.59458" fill="black"/>
<ellipse cx="52.0001" cy="92.5543" rx="1.74615" ry="1.74277" fill="white"/>
<path d="M59.125 93.8225C62.2817 93.8225 65.8335 92.1159 63.4659 87.2588" stroke="black" stroke-width="1.04253" stroke-linecap="round" stroke-linejoin="round" stroke-dasharray="2.43 2.43"/>
<rect x="43.8942" y="86.904" width="14.6564" height="13.8377" rx="6.91885" fill="white" fill-opacity="0.3" stroke="black" stroke-width="1.39004"/>
<path d="M33.2507 139.507L38.3803 124.41L39.6953 125.723C38.6869 131.105 37.2752 141.397 39.6953 139.507C42.7204 137.144 44.0357 142.263 42.852 143.445C41.6682 144.626 38.3803 143.576 34.829 143.445C31.988 143.34 32.593 140.776 33.2507 139.507Z" fill="#EF8C67"/>
<path d="M45.0925 139.507L50.2221 124.41L51.5371 125.723C50.5287 131.105 49.117 141.397 51.5371 139.507C54.5622 137.144 55.8775 142.263 54.6938 143.445C53.51 144.626 50.2221 143.576 46.6708 143.445C43.8298 143.34 44.4348 140.776 45.0925 139.507Z" fill="#EF8C67"/>
<path d="M15.212 116.664C17.106 116.98 22.5776 115.133 25.0766 114.17L21.3937 111.676C20.3415 112.201 18.0529 113.278 17.3164 113.383C16.5798 113.488 12.3621 112.289 10.3454 111.676C10.8276 111.457 11.7396 110.652 11.5291 109.182C11.2661 107.344 8.89866 107.738 8.10949 107.607C7.32032 107.475 5.3474 108.788 5.47893 111.676C5.61045 114.564 12.8445 116.271 15.212 116.664Z" fill="#EF8C67"/>
<path d="M14.8678 93.5851C15.8624 95.2244 20.8309 98.1641 23.1908 99.4291L22.6871 95.0156C21.6025 94.561 19.2932 93.5295 18.7334 93.0402C18.1737 92.5509 16.3371 88.5764 15.4888 86.6503C15.9693 86.8729 17.1754 87.0388 18.1559 85.9215C19.3814 84.525 17.5396 82.9891 17.1253 82.306C16.7109 81.623 14.4276 80.9844 12.3181 82.9656C10.2086 84.9468 13.6247 91.5359 14.8678 93.5851Z" fill="#EF8C67"/>
<path d="M72.2174 112.822C70.3876 113.122 65.1013 111.365 62.6869 110.448L66.2451 108.074C67.2616 108.574 69.4727 109.599 70.1843 109.699C70.896 109.799 74.9708 108.657 76.9193 108.074C76.4533 107.866 75.5723 107.1 75.7756 105.7C76.0297 103.951 78.317 104.326 79.0794 104.201C79.8419 104.076 81.748 105.325 81.6209 108.074C81.4938 110.823 74.5048 112.448 72.2174 112.822Z" fill="#EF8C67"/>
<path d="M63.8988 82.1495C62.6611 83.5277 57.438 85.4644 54.9812 86.2605L56.2633 82.185C57.3693 81.9386 59.7357 81.3541 60.353 80.9869C60.9703 80.6197 63.4292 77.1817 64.5814 75.5086C64.0876 75.6378 62.9198 75.5916 62.1995 74.3739C61.2991 72.8518 63.3169 71.7133 63.8326 71.1391C64.3483 70.5648 66.6183 70.3463 68.2453 72.5679C69.8723 74.7895 65.4459 80.4268 63.8988 82.1495Z" fill="#EF8C67"/>
<path fill-rule="evenodd" clip-rule="evenodd" d="M58.2258 62.1494C58.2258 63.5388 56.9641 64.6651 55.4078 64.6651C53.8514 64.6651 52.5897 63.5388 52.5897 62.1494C52.5897 62.0993 52.5914 62.0494 52.5946 62H49.9133V65.6249C49.7255 65.5773 49.5288 65.5519 49.3262 65.5519C48.0156 65.5519 46.9531 66.612 46.9531 67.9196C46.9531 69.2273 48.0156 70.2873 49.3262 70.2873C49.5288 70.2873 49.7255 70.262 49.9133 70.2143V72.6546H60.8893V62H58.2209C58.2242 62.0494 58.2258 62.0993 58.2258 62.1494Z" fill="#FFDA56"/>
<path fill-rule="evenodd" clip-rule="evenodd" d="M10.8643 100.702C10.0414 101.149 8.96744 100.767 8.46545 99.848C7.96345 98.929 8.22355 97.8214 9.0464 97.3741C9.0745 97.3588 9.10289 97.3445 9.13154 97.3311L8.26516 95.7451L6.1209 96.9109C6.08859 96.7854 6.04034 96.6619 5.97537 96.543C5.55267 95.7691 4.58214 95.4832 3.80763 95.9043C3.03311 96.3254 2.7479 97.2941 3.1706 98.0679C3.23556 98.1869 3.31346 98.2943 3.40159 98.3893L1.95487 99.1759L5.49518 105.657L11.8055 102.226L10.9466 100.654C10.9198 100.671 10.8924 100.687 10.8643 100.702Z" fill="#9C5FFF"/>
</svg>
