<svg width="126" height="206" viewBox="0 0 126 206" fill="none" xmlns="http://www.w3.org/2000/svg">
<path fill-rule="evenodd" clip-rule="evenodd" d="M0 203.422C7.39534 205.109 15.0936 206 23 206C79.8853 206 126 159.885 126 103C126 46.1147 79.8853 0 23 0C15.0936 0 7.39534 0.890824 0 2.57758V203.422Z" fill="#2A5996"/>
<path fill-rule="evenodd" clip-rule="evenodd" d="M0 185.89C7.32088 187.917 15.034 189 23 189C70.4965 189 109 150.496 109 103C109 55.5035 70.4965 17 23 17C15.034 17 7.32088 18.0831 0 20.11V185.89Z" fill="#6C90D3"/>
<path fill-rule="evenodd" clip-rule="evenodd" d="M0 168.074C7.19392 170.616 14.9354 172 23 172C61.1077 172 92 141.108 92 103C92 64.8924 61.1077 34 23 34C14.9354 34 7.19392 35.3835 0 37.9262V168.074Z" fill="#A3C1F7"/>
<rect width="49.9346" height="49.9344" rx="14.7493" transform="matrix(0.7943 0.607526 -0.607536 0.794292 36.3379 62)" fill="#EF8C67"/>
<path d="M36.7013 104.26C40.2033 107.215 43.8162 107.164 45.6522 103.252" stroke="black" stroke-width="1.56908" stroke-linecap="round"/>
<path d="M38.0676 96.4594C42.0606 95.394 41.86 99.7299 41.3646 101.022C40.8692 102.314 36.2507 107.172 29.0131 101.653C36.8436 103.043 34.0746 97.5249 38.0676 96.4594Z" fill="#6D5F5A"/>
<path d="M44.0536 95.8803C39.9304 95.6012 40.9596 99.818 41.6939 100.991C42.4282 102.164 47.8935 106.045 53.9369 99.2392C46.5188 102.107 48.1769 96.1594 44.0536 95.8803Z" fill="#6D5F5A"/>
<ellipse cx="31.536" cy="91.1384" rx="6.08872" ry="6.08864" fill="black"/>
<ellipse cx="32.7919" cy="90.289" rx="2.30951" ry="2.30948" fill="white"/>
<ellipse cx="48.6442" cy="89.108" rx="5.07393" ry="5.07387" fill="black"/>
<ellipse cx="49.3504" cy="87.7087" rx="1.9246" ry="1.92457" fill="white"/>
<path d="M57.1738 89.1078C60.6531 89.1078 64.5678 87.2232 61.9584 81.8594" stroke="black" stroke-width="0.941445" stroke-linecap="round" stroke-linejoin="round" stroke-dasharray="2.2 2.2"/>
<rect x="40.2604" y="81.3288" width="16.431" height="15.561" rx="7.78049" fill="white" fill-opacity="0.3" stroke="black" stroke-width="1.25526"/>
<path d="M28.6408 139.557L34.2946 122.886L35.744 124.335C34.6326 130.279 33.0766 141.645 35.744 139.557C39.0783 136.948 40.528 142.601 39.2233 143.906C37.9186 145.211 34.2946 144.051 30.3804 143.906C27.2491 143.79 27.9159 140.958 28.6408 139.557Z" fill="#EF8C67"/>
<path d="M41.6916 139.558L47.3454 122.887L48.7948 124.336C47.6834 130.28 46.1274 141.646 48.7948 139.558C52.1291 136.949 53.5788 142.602 52.2741 143.907C50.9693 145.212 47.3454 144.052 43.4312 143.907C40.2999 143.791 40.9667 140.959 41.6916 139.558Z" fill="#EF8C67"/>
<path d="M72.3296 116.246C73.1737 114.013 66.2625 109.112 62.7014 106.94L61.3827 107.605C64.3723 110.353 69.4545 114.359 67.9773 113.721C66.1308 112.923 65.8671 116.512 67.4498 117.709C68.1884 118.267 71.2744 119.038 72.3296 116.246Z" fill="#EF8C67"/>
<path d="M24.7938 107.036L37.4536 109.716C38.2853 110.732 40.041 110.64 40.7803 110.27L54.5489 107.775L54.7337 124.592L41.1499 126.902C40.4414 127.333 38.6734 127.937 37.2688 126.902L25.9858 125.656C25.605 125.643 25.2853 125.61 25.0474 125.552C24.6798 125.462 24.5078 125.31 24.6082 125.079L24.609 118.678L24.7938 107.036Z" fill="#6596A4"/>
<path d="M30.2242 104.911L24.957 107.129C37.3026 113.708 49.5681 110.486 54.1577 108.053L49.4449 105.373C48.7796 104.338 42.6992 107.899 39.7422 109.808C39.5204 108.995 33.3045 106.205 30.2242 104.911Z" fill="#F9F9F9"/>
<path d="M29.9245 116.363C29.8717 116.879 24.8022 114.817 21.9512 113.754L23.2559 115.494C25.2855 118.248 31.6641 120.277 33.4038 119.698C35.1434 119.118 36.2548 117.185 35.7233 116.363C35.8682 115.928 33.6937 113.754 32.6789 114.189C31.6641 114.624 30.1468 114.189 29.9245 116.363Z" fill="#EF8C67"/>
<rect width="1.21168" height="22.1288" rx="0.605842" transform="matrix(0.954284 0.298902 -0.298909 0.954282 73.2148 95.8213)" fill="#6B4040"/>
<path d="M72.5487 80.9876L72.7469 80.7862C72.8991 80.681 73.0451 80.5746 73.1851 80.4672C73.3322 80.3547 73.4805 80.2361 73.6299 80.1113C73.5502 80.1665 73.4621 80.2327 73.3657 80.3101C73.2715 80.3753 73.1773 80.4404 73.0831 80.5056L72.7135 80.7612C72.651 80.8258 72.6053 80.8681 72.5763 80.8881C72.4894 80.9483 72.4114 80.9594 72.3423 80.9215L72.3173 80.7459C72.4767 80.6357 72.5865 80.5544 72.6467 80.502C72.7069 80.4497 72.7635 80.3998 72.8165 80.3525L72.9393 80.4604C73.0374 80.3389 73.1456 80.232 73.2638 80.1396C73.3892 80.0421 73.5135 79.9508 73.6367 79.8656C73.7599 79.7804 73.8806 79.6916 73.9988 79.5992C74.1242 79.5017 74.2335 79.3886 74.3266 79.26L74.2815 79.1948C73.8338 79.6008 73.3672 79.9716 72.8817 80.3074C73.2624 79.9905 73.6357 79.6628 74.0014 79.3242C74.3743 78.9806 74.7746 78.6609 75.2021 78.3652C75.3782 78.372 75.5496 78.3178 75.7163 78.2025L75.743 78.2644C75.7631 78.2933 75.7831 78.3223 75.8032 78.3513C75.8255 78.368 75.8491 78.3945 75.8742 78.4307C75.9093 78.4815 75.926 78.5288 75.9243 78.5729C75.9299 78.6119 75.8964 78.6564 75.8239 78.7065L75.8916 78.8044C75.9941 78.7977 76.0947 78.8192 76.1933 78.8688C76.2942 78.9062 76.3747 78.9684 76.4348 79.0553C76.49 79.135 76.4952 79.2278 76.4506 79.3337C76.4082 79.4273 76.3391 79.5286 76.2432 79.6378C76.1473 79.747 76.0294 79.8553 75.8895 79.9628C75.7568 80.0652 75.6216 80.1641 75.4839 80.2593C75.3535 80.3495 75.2339 80.4322 75.1252 80.5073C75.0115 80.5753 74.922 80.6318 74.8568 80.6769C74.6757 80.8022 74.4897 80.9361 74.2991 81.0786C74.1157 81.2162 73.9298 81.3501 73.7414 81.4804C73.6182 81.5656 73.5563 81.662 73.5557 81.7695C73.5551 81.877 73.5815 81.9927 73.635 82.1164C73.6957 82.2351 73.765 82.3586 73.843 82.4867C73.9282 82.6099 73.9961 82.7236 74.0468 82.8278C74.1789 82.8329 74.3502 82.7787 74.5609 82.6651C74.7666 82.5443 74.9954 82.4182 75.2474 82.2868C75.5066 82.1504 75.7819 82.0296 76.0734 81.9244C76.3722 81.8143 76.6756 81.7651 76.9838 81.7769C77.2942 81.7765 77.6048 81.8616 77.9157 82.0323C78.2339 82.1979 78.5383 82.4908 78.829 82.9111C79.1097 83.3169 79.2737 83.7552 79.3209 84.226C79.3753 84.6919 79.3392 85.1507 79.2125 85.6025C79.0808 86.0471 78.8716 86.4649 78.585 86.8559C78.3035 87.2542 77.9743 87.5836 77.5974 87.8442C77.467 87.9344 77.2769 88.0391 77.0272 88.1582C76.7825 88.2846 76.5203 88.3856 76.2405 88.4612C75.973 88.5391 75.7169 88.5716 75.4722 88.5587C75.2326 88.553 75.0526 88.4632 74.9323 88.2893C74.8922 88.2313 74.8948 88.1653 74.9399 88.0912C75.2898 88.2563 75.6599 88.3111 76.05 88.2555C76.4351 88.1928 76.7884 88.0609 77.1101 87.8599C76.7907 88.0486 76.4493 88.1669 76.0859 88.2146C75.7103 88.2601 75.3559 88.1892 75.0227 88.0018L75.1231 87.8681C75.0518 87.8425 74.9841 87.8143 74.92 87.7836C74.8509 87.7457 74.7891 87.7028 74.7345 87.6548C74.7016 87.5919 74.6746 87.5141 74.6535 87.4216C74.6273 87.3219 74.6541 87.2444 74.7338 87.1893C74.8788 87.0891 75.0128 87.066 75.1359 87.1201C75.2613 87.162 75.4014 87.2097 75.5563 87.2632C75.7135 87.3045 75.8971 87.3222 76.1072 87.3161C76.3123 87.3029 76.5742 87.186 76.8931 86.9655C77.096 86.8252 77.2895 86.6325 77.4735 86.3874C77.6647 86.1373 77.8178 85.8707 77.9327 85.5877C78.0498 85.2925 78.1157 85.0005 78.1303 84.7119C78.1399 84.416 78.0718 84.1472 77.9259 83.9053C78.045 84.155 78.1009 84.4216 78.0935 84.7052C78.0812 84.9816 78.0212 85.2587 77.9135 85.5367C77.8081 85.8025 77.6645 86.0517 77.4827 86.2846C77.3082 86.5124 77.1158 86.699 76.9057 86.8443C76.8042 86.9144 76.6894 86.9885 76.5612 87.0664C76.4352 87.1321 76.3017 87.187 76.1607 87.2309C76.022 87.2626 75.8865 87.2759 75.7545 87.2708C75.6174 87.2585 75.4906 87.2069 75.3742 87.1161C75.4907 87.0676 75.6013 87.034 75.7061 87.0151C75.8109 86.9962 75.9156 86.9773 76.0204 86.9584C76.1202 86.9322 76.2236 86.9036 76.3306 86.8724C76.4326 86.834 76.5452 86.7722 76.6683 86.687L76.8314 86.5743C76.8821 86.5392 76.9315 86.4944 76.9794 86.4398L77.0471 86.5376C77.2127 86.3588 77.3632 86.1583 77.4987 85.9361C77.6365 85.7015 77.7436 85.4614 77.82 85.2157C77.8914 84.9628 77.9177 84.7143 77.8989 84.4703C77.8823 84.2139 77.7963 83.9735 77.6409 83.7489C77.5256 83.5822 77.3754 83.4504 77.1905 83.3533C77.0055 83.2563 76.813 83.218 76.6129 83.2386L76.6254 83.3263C76.7814 83.3041 76.9408 83.3331 77.1035 83.4135C77.2734 83.4888 77.4035 83.5916 77.4938 83.722C77.7494 84.0916 77.8549 84.4686 77.8101 84.853C77.7765 85.1762 77.6683 85.492 77.4854 85.8006C77.5423 85.697 77.593 85.5923 77.6377 85.4865C77.7079 85.3093 77.7501 85.1302 77.7641 84.9491C77.7854 84.763 77.7773 84.5811 77.7401 84.4033C77.7101 84.2206 77.6424 84.0531 77.5372 83.9009C77.3567 83.6401 77.1305 83.4912 76.8586 83.4543C76.5866 83.4174 76.301 83.4382 76.0017 83.5166C75.7097 83.59 75.4232 83.7024 75.1423 83.8539C74.8563 83.998 74.608 84.1269 74.3973 84.2405C74.2496 84.3212 74.1128 84.3944 73.9868 84.4601C73.863 84.5135 73.7438 84.5425 73.629 84.5469C73.5142 84.5513 73.4025 84.5214 73.2938 84.4573C73.1852 84.3932 73.0732 84.2778 72.9579 84.1111C72.8777 83.9952 72.7833 83.8355 72.6747 83.6321C72.5684 83.4164 72.4656 83.1982 72.3665 82.9775C72.2697 82.7446 72.1778 82.5189 72.0909 82.3004C72.0041 82.0819 71.9423 81.8997 71.9056 81.7537C71.9524 81.7749 71.9939 81.773 72.0301 81.7479C72.0664 81.7229 72.1051 81.7014 72.1464 81.6836C72.1826 81.6585 72.2166 81.6457 72.2484 81.6452C72.2874 81.6397 72.3294 81.6695 72.3746 81.7347C72.4247 81.8072 72.4639 81.8871 72.4923 81.9746C72.5157 82.0549 72.5391 82.1351 72.5624 82.2154L72.6828 82.1803C72.6739 82.09 72.664 82.0059 72.6528 81.9279C72.644 81.8376 72.6412 81.7485 72.6446 81.6604C72.5805 81.6298 72.5309 81.5891 72.4958 81.5383C72.4407 81.4586 72.4148 81.3748 72.4182 81.2867C72.4238 81.1864 72.4027 81.0939 72.3548 81.0092L72.5487 80.9876ZM79.1009 84.4424C79.074 85.0074 78.9316 85.545 78.674 86.0553C78.4213 86.5728 78.082 87.027 77.6561 87.418C78.0943 87.0293 78.4447 86.5834 78.7074 86.0804C78.9751 85.5846 79.1063 85.0386 79.1009 84.4424ZM74.724 80.4152C74.6393 80.4631 74.5462 80.5221 74.4447 80.5923L74.0099 80.893C74.0685 80.8846 74.1774 80.8253 74.3369 80.7151C74.4528 80.6349 74.5662 80.5511 74.6772 80.4637C74.7424 80.4186 74.7942 80.3774 74.8327 80.34C74.811 80.3551 74.7747 80.3801 74.724 80.4152ZM73.3351 81.5203L73.3519 81.4284L72.8736 81.7592L73.3351 81.5203ZM77.4427 85.8784C77.4544 85.8488 77.4687 85.8229 77.4854 85.8006C77.4687 85.8229 77.4544 85.8488 77.4427 85.8784ZM77.4068 85.9193C77.414 85.9143 77.4188 85.9056 77.421 85.8934C77.4188 85.9056 77.414 85.9143 77.4068 85.9193Z" fill="#E338D2"/>
<path d="M60.4368 67.6655C59.621 67.9527 59.5115 68.8789 59.5607 69.3517C59.564 69.3835 59.5811 69.4119 59.6066 69.431C59.6884 69.4921 59.8135 69.4273 59.839 69.3285C59.9169 69.0274 60.1612 68.7812 60.4285 68.5994C60.7262 68.3969 61.0881 68.6301 61.119 68.9888L61.2091 70.0378C61.2325 70.3098 61.1733 70.582 61.0645 70.8324C60.9259 71.1513 60.7534 71.6099 60.6234 72.1285C60.3748 73.1202 61.6179 72.8103 62.1773 72.7483C62.5726 72.7045 62.1241 70.4005 61.757 68.8524C61.6824 68.5376 61.8703 68.2192 62.1831 68.1371C62.5152 68.0499 62.8507 68.2636 62.9231 68.5991C63.2151 69.9529 63.7771 71.9328 64.4149 72.3144C65.0757 72.7098 65.5576 71.4801 65.7742 70.591C65.817 70.4152 65.6974 70.2445 65.5188 70.2148C65.308 70.1798 65.1024 70.3687 64.9854 70.5476C64.8859 70.6996 64.7104 70.8525 64.4149 70.9508C63.9008 71.1217 63.6266 69.4336 63.5208 68.2097C63.4943 67.9038 63.7199 67.6377 64.0248 67.6019L64.1341 67.5891C64.3651 67.562 64.5392 67.3663 64.5392 67.1337C64.5392 66.8365 64.2609 66.6179 63.9725 66.6901C62.8465 66.9722 61.1478 67.4153 60.4368 67.6655Z" fill="#7C3C3C"/>
<rect width="8.41131" height="2.0682" rx="1.0341" transform="matrix(0.954748 -0.297415 0.297513 0.954718 71.1816 71.9062)" fill="#4D69FF"/>
<ellipse cx="1.03418" cy="1.0341" rx="1.03418" ry="1.0341" transform="matrix(0.954748 -0.297415 0.297513 0.954718 73.4277 68.46)" fill="#4D69FF"/>
<ellipse cx="1.03418" cy="1.0341" rx="1.03418" ry="1.0341" transform="matrix(0.954748 -0.297415 0.297513 0.954718 74.9883 73.4629)" fill="#4D69FF"/>
</svg>
